<svg xmlns="http://www.w3.org/2000/svg" xmlns:xlink="http://www.w3.org/1999/xlink" viewBox="0 0 320.65 292.99"><defs><style>.cls-1{fill:#fff;}.cls-2{fill:#bcbec0;}.cls-3{fill:#f7fcfe;}.cls-4{fill:#808285;}.cls-5{fill:#2d5c60;}.cls-6{fill:#a7a9ac;}.cls-7{fill:#414042;}.cls-8{fill:url(#linear-gradient);}.cls-9{fill:url(#linear-gradient-2);}.cls-10{fill:url(#linear-gradient-3);}.cls-11{fill:url(#linear-gradient-4);}.cls-12{fill:url(#linear-gradient-5);}.cls-13{fill:url(#linear-gradient-6);}.cls-14{fill:url(#linear-gradient-7);}.cls-15{fill:url(#linear-gradient-8);}.cls-16{fill:url(#linear-gradient-9);}.cls-17{fill:url(#linear-gradient-10);}.cls-18{fill:#006141;}.cls-19,.cls-20,.cls-21,.cls-22,.cls-23,.cls-24{opacity:0.3;}.cls-19{fill:url(#linear-gradient-11);}.cls-20{fill:url(#linear-gradient-12);}.cls-21{fill:url(#linear-gradient-13);}.cls-22{fill:url(#linear-gradient-14);}.cls-23{fill:url(#linear-gradient-15);}.cls-24{fill:url(#linear-gradient-16);}.cls-25{fill:url(#linear-gradient-17);}.cls-26{fill:#4d4d4f;}</style><linearGradient id="linear-gradient" x1="96.56" y1="40.41" x2="96.56" y2="54.93" gradientUnits="userSpaceOnUse"><stop offset="0" stop-color="#00704d"/><stop offset="1" stop-color="#336667"/></linearGradient><linearGradient id="linear-gradient-2" x1="107.52" y1="39.64" x2="107.52" y2="52.78" xlink:href="#linear-gradient"/><linearGradient id="linear-gradient-3" x1="118.48" y1="38.36" x2="118.48" y2="51.59" xlink:href="#linear-gradient"/><linearGradient id="linear-gradient-4" x1="133.4" y1="37.19" x2="133.4" y2="50.59" xlink:href="#linear-gradient"/><linearGradient id="linear-gradient-5" x1="151.14" y1="36.54" x2="151.14" y2="49.54" xlink:href="#linear-gradient"/><linearGradient id="linear-gradient-6" x1="165.27" y1="36.44" x2="165.27" y2="49.52" xlink:href="#linear-gradient"/><linearGradient id="linear-gradient-7" x1="179.8" y1="36.84" x2="179.8" y2="49.97" xlink:href="#linear-gradient"/><linearGradient id="linear-gradient-8" x1="195.27" y1="37.72" x2="195.27" y2="50.89" xlink:href="#linear-gradient"/><linearGradient id="linear-gradient-9" x1="211.41" y1="39.22" x2="211.41" y2="52.51" xlink:href="#linear-gradient"/><linearGradient id="linear-gradient-10" x1="225.99" y1="40.68" x2="225.99" y2="54.93" xlink:href="#linear-gradient"/><linearGradient id="linear-gradient-11" x1="256.78" y1="63.99" x2="245.47" y2="23.22" gradientUnits="userSpaceOnUse"><stop offset="0" stop-color="#fff"/><stop offset="1"/></linearGradient><linearGradient id="linear-gradient-12" x1="507.87" y1="63.98" x2="496.56" y2="23.22" gradientTransform="matrix(-1, 0, 0, 1, 571.55, 0)" xlink:href="#linear-gradient-11"/><linearGradient id="linear-gradient-13" x1="189.5" y1="10.51" x2="161.39" y2="4.45" xlink:href="#linear-gradient-11"/><linearGradient id="linear-gradient-14" x1="178.85" y1="274.99" x2="166.83" y2="281.86" xlink:href="#linear-gradient-11"/><linearGradient id="linear-gradient-15" x1="256.23" y1="226.56" x2="234.53" y2="245.4" xlink:href="#linear-gradient-11"/><linearGradient id="linear-gradient-16" x1="-170.35" y1="226.56" x2="-192.04" y2="245.4" gradientTransform="matrix(-1, 0, 0, 1, -106.02, 0)" xlink:href="#linear-gradient-11"/><linearGradient id="linear-gradient-17" x1="89.33" y1="242.92" x2="231.23" y2="242.92" gradientUnits="userSpaceOnUse"><stop offset="0" stop-color="#fff"/><stop offset="0.49" stop-color="#757575"/><stop offset="1" stop-color="#fff"/></linearGradient></defs><title>Asset 1</title><g id="Layer_2" data-name="Layer 2"><g id="Layer_1-2" data-name="Layer 1"><path class="cls-1" d="M304.23,183.05l-.91-.2c-3.25-.69-6.56-1.37-9.87-2l-45.66-161L162.15,1.21,161.24,1h-1.85L72.87,19.79l-45.67,161c-3.33.66-6.63,1.34-9.86,2l-.92.2-14,3.18,86.88,63.93,2.94-.69c2.91-.67,6-1.31,9.1-1.92l59,44.17,59-44.17c3.14.61,6.19,1.25,9.1,1.92l2.94.69,86.88-63.94Z"/><path class="cls-2" d="M161.24,1l.91.19,85.64,18.58,45.66,161c3.31.66,6.62,1.34,9.87,2l.91.2,14,3.17-86.88,63.94-2.94-.69c-2.91-.67-6-1.31-9.1-1.92l-59,44.17-59-44.17c-3.14.61-6.19,1.25-9.1,1.92l-2.94.69L2.4,186.23l14-3.18.92-.2c3.23-.69,6.53-1.37,9.86-2l45.67-161L159.39,1h1.85m.11-1h-2.07l-.11,0L72.65,18.79l-.6.13-.17.59L26.39,179.94c-3.07.61-6.18,1.25-9.26,1.91l-.94.2-14,3.18L0,185.72l1.8,1.33L88.67,251l.38.28.46-.11,2.94-.68c2.78-.64,5.67-1.26,8.62-1.83l58.65,43.9.61.45.61-.45,58.64-43.9c2.95.57,5.84,1.19,8.62,1.83l2.94.68.46.11L232,251,318.85,187l1.8-1.32-2.18-.5-14-3.17h0l-.91-.2c-3.09-.66-6.21-1.3-9.28-1.91L248.77,19.51l-.17-.59-.6-.13L162.36.22l-.91-.2-.1,0Z"/><polygon points="42.3 185.86 160.32 271.38 278.35 185.86 241.37 26.99 160.33 8.79 79.28 26.99 42.3 185.86"/><path d="M160.33,283.52l-128.21-96,46-162.19,82-17.78h.46l.23,0,81.76,17.73,46,162.19ZM44,185.8l116.38,85.29L276.7,185.8,240.23,27.39,160.33,9.24,80.42,27.39Z"/><path class="cls-3" d="M160.55,7.59l.23,0,81.76,17.73,46,162.19-128.2,96-128.21-96,46-162.19,82-17.78h.46m-.22,263.5L276.7,185.8,240.23,27.39,160.33,9.24,80.42,27.39,44,185.8l116.38,85.29m.53-266.42h-1.08l-.3.06-82,17.79-1.71.37-.48,1.69-46,162.18-.55,1.93,1.61,1.2,128.21,96,1.75,1.31,1.75-1.31,128.2-96,1.61-1.2-.55-1.93-46-162.18-.48-1.69-1.71-.37L161.4,4.78l-.24,0-.3-.06Zm-78,25.16,77.48-17.6,77.47,17.6,35.62,154.76L160.33,267.47,47.23,184.59,82.85,29.83Z"/><path class="cls-4" d="M160.33,283.52l-128.21-96,46-162.19,82-17.78h.46l.23,0,81.76,17.73,46,162.19Z"/><polygon class="cls-5" points="277.53 183.61 254.81 85.32 281.69 182.55 277.53 183.61"/><polygon class="cls-5" points="38.96 182.55 65.85 85.32 43.12 183.61 38.96 182.55"/><polygon class="cls-5" points="160.33 275.38 113.18 240.89 115.72 237.42 160.33 270.05 204.93 237.42 207.47 240.89 160.33 275.38"/><polyline class="cls-6" points="237.31 31.38 160.34 14.03 160.31 14.03 83.34 31.38 49.25 183.51 62.12 191.22"/><path class="cls-3" d="M160.33,263l-.84-.58L47.61,184.14l34.5-154,78.36-17.59.19,0,77.88,17.56,34.5,154ZM50.89,182.87l109.44,76.52,109.43-76.52L236.09,32.6,160.33,15.52,84.56,32.6Z"/><path class="cls-7" d="M80.77,154.84v0A4.73,4.73,0,0,1,85.62,150a4.79,4.79,0,0,1,3.67,1.43l-1.3,1.5a3.45,3.45,0,0,0-2.38-1.05,2.76,2.76,0,0,0-2.7,2.9v0a2.76,2.76,0,0,0,2.7,2.92,3.37,3.37,0,0,0,2.45-1.09l1.3,1.32a4.77,4.77,0,0,1-3.82,1.66A4.7,4.7,0,0,1,80.77,154.84Z"/><path class="cls-7" d="M95.65,150.16h2v3.68h3.78v-3.68h2v9.3h-2v-3.73H97.69v3.73h-2Z"/><path class="cls-7" d="M113.59,150.09h1.88l4,9.37h-2.14l-.85-2.09h-3.93l-.85,2.09H109.6Zm2.15,5.48-1.23-3-1.24,3Z"/><path class="cls-7" d="M125.55,150.16h2.21l2.44,3.93,2.45-3.93h2.2v9.3h-2v-6.07l-2.62,4h0l-2.59-3.93v6h-2Z"/><path class="cls-7" d="M141.74,150.16h3.8c2.22,0,3.56,1.31,3.56,3.21v0c0,2.15-1.67,3.27-3.76,3.27h-1.55v2.79h-2Zm3.67,4.69a1.44,1.44,0,0,0,1.62-1.41v0c0-.91-.64-1.41-1.66-1.41h-1.58v2.85Z"/><path class="cls-7" d="M155.36,150.16h2v9.3h-2Z"/><path class="cls-7" d="M164,154.84v0a4.82,4.82,0,0,1,5-4.81,4.77,4.77,0,0,1,4.93,4.78v0a4.95,4.95,0,0,1-9.89,0Zm7.75,0v0a2.83,2.83,0,0,0-2.81-2.93,2.79,2.79,0,0,0-2.79,2.9v0a2.82,2.82,0,0,0,2.81,2.92A2.78,2.78,0,0,0,171.72,154.84Z"/><path class="cls-7" d="M180.33,150.16h1.89l4.36,5.73v-5.73h2v9.3h-1.74l-4.51-5.92v5.92h-2Z"/><path class="cls-7" d="M194.85,158.11l1.21-1.45a4.25,4.25,0,0,0,2.77,1.13c.84,0,1.35-.34,1.35-.88v0c0-.51-.32-.78-1.88-1.18-1.87-.48-3.08-1-3.08-2.84v0c0-1.69,1.36-2.81,3.26-2.81a5.37,5.37,0,0,1,3.45,1.19l-1.06,1.54a4.39,4.39,0,0,0-2.42-.92c-.78,0-1.2.36-1.2.81v0c0,.61.41.81,2,1.22,1.89.5,3,1.17,3,2.79v0c0,1.85-1.41,2.88-3.41,2.88A6,6,0,0,1,194.85,158.11Z"/><path class="cls-7" d="M208.65,150.16h2v3.68h3.78v-3.68h2v9.3h-2v-3.73h-3.78v3.73h-2Z"/><path class="cls-7" d="M223.49,150.16h2v9.3h-2Z"/><path class="cls-7" d="M232.52,150.16h3.8c2.22,0,3.56,1.31,3.56,3.21v0c0,2.15-1.68,3.27-3.76,3.27h-1.56v2.79h-2Zm3.66,4.69a1.44,1.44,0,0,0,1.63-1.41v0c0-.91-.64-1.41-1.67-1.41h-1.58v2.85Z"/><path class="cls-8" d="M92.21,42.18c1.38-.23,1.71-.35,3.1-.57-.28,1.9-.42,2.85-.69,4.76,1.8-.29,2.69-.43,4.49-.7.26-1.9.39-2.86.64-4.75,1.39-.22,2.08-.32,3.47-.51l-1.6,12.69-3.57.52.65-4.83c-1.81.27-2.72.42-4.53.71l-.7,4.84-3.56.59C90.68,49.83,91.44,47.28,92.21,42.18Z"/><path class="cls-9" d="M106.55,40.09c1.38-.18,2.08-.28,3.47-.45-.57,5.07-.86,7.6-1.42,12.67-1.44.18-2.15.27-3.58.47C105.63,47.7,105.94,45.17,106.55,40.09Z"/><path class="cls-10" d="M112.23,45.78a.06.06,0,0,1,0,0,8.48,8.48,0,0,1,7.44-7.33,6.16,6.16,0,0,1,4.95,1.33l-2.27,2.68a3.72,3.72,0,0,0-3-.89,4.25,4.25,0,0,0-3.58,3.8v0A2.68,2.68,0,0,0,119,48.52a4.36,4.36,0,0,0,2.1-.73c.05-.62.08-.92.13-1.54l-2.5.25c.09-1,.14-1.54.24-2.56,2.33-.24,3.49-.35,5.83-.56l-.45,5.67a10.51,10.51,0,0,1-5.78,2.49C114.51,52,111.82,49.61,112.23,45.78Z"/><path class="cls-11" d="M128.14,38c1.4-.12,2.09-.17,3.49-.27-.13,1.89-.19,2.83-.32,4.72,1.81-.14,2.72-.2,4.53-.31.1-1.89.16-2.83.26-4.72l3.49-.2-.6,12.6c-1.44.07-2.16.11-3.59.2.1-1.91.16-2.87.26-4.78-1.82.11-2.73.17-4.55.31-.13,1.91-.19,2.87-.32,4.79-1.44.1-2.15.16-3.59.28C127.58,45.54,127.77,43,128.14,38Z"/><path class="cls-12" d="M145.49,47.63l2.06-2.38a6.6,6.6,0,0,0,4.14,1.4c1,0,1.49-.35,1.5-.89v0c0-.54-.42-.81-2.16-1.18-2.7-.56-4.79-1.23-4.71-3.8v0c.07-2.34,2-4.11,5-4.17a7.69,7.69,0,0,1,5.17,1.59l-1.78,2.48a6.12,6.12,0,0,0-3.54-1.18c-.85,0-1.27.38-1.29.84v0c0,.57.42.82,2.2,1.17,2.89.58,4.72,1.5,4.7,3.86v0c0,2.57-2.13,4.11-5.28,4.17A8.89,8.89,0,0,1,145.49,47.63Z"/><path class="cls-13" d="M159.11,43v0a6.68,6.68,0,0,1,12-3.8l-2.6,2a3.58,3.58,0,0,0-2.8-1.51,3.07,3.07,0,0,0-3,3.31v0a3.2,3.2,0,0,0,3.09,3.39,3.45,3.45,0,0,0,2.88-1.48l2.72,1.93a6.34,6.34,0,0,1-5.66,2.72A6.51,6.51,0,0,1,159.11,43Z"/><path class="cls-14" d="M173.72,36.84l3.5.13c.06,1.89.1,2.83.17,4.71,1.81.07,2.71.11,4.52.21-.09-1.89-.13-2.83-.22-4.71l3.49.19.7,12.6-3.59-.2c-.09-1.91-.14-2.87-.23-4.78-1.83-.1-2.74-.14-4.56-.22.07,1.92.1,2.88.17,4.79-1.43-.06-2.16-.09-3.59-.13C173.94,44.4,173.87,41.88,173.72,36.84Z"/><path class="cls-15" d="M188.39,43.82v0a5.62,5.62,0,0,1,6.4-6,8.15,8.15,0,0,1,7.34,7.16v0c.33,3.63-2.39,6.26-6.39,5.92A7.84,7.84,0,0,1,188.39,43.82Zm10.12.8v0a4,4,0,0,0-3.52-3.7A2.71,2.71,0,0,0,192,44v0a4,4,0,0,0,3.54,3.67A2.66,2.66,0,0,0,198.51,44.62Z"/><path class="cls-16" d="M204.55,45.12v0c-.34-3.63,2.28-6.28,6.15-5.8a8.94,8.94,0,0,1,7.55,7.45v0c.45,3.64-2.16,6.17-6.15,5.68A8.62,8.62,0,0,1,204.55,45.12Zm10.1,1.19a0,0,0,0,1,0,0A4.39,4.39,0,0,0,211,42.44a2.5,2.5,0,0,0-2.87,3s0,0,0,0a4.36,4.36,0,0,0,3.64,3.81A2.46,2.46,0,0,0,214.65,46.31Z"/><path class="cls-17" d="M220.26,40.68c1.39.2,2.08.3,3.47.52.53,3.85.8,5.77,1.33,9.62,2.47.39,3.71.59,6.18,1,.19,1.23.29,1.85.47,3.09-3.91-.67-5.87-1-9.8-1.55Z"/><path class="cls-1" d="M33.84,179.21s127.69-20.56,252.34,0c8.45,1.39,4.95,4.75,4.95,4.75l-128.84-9.7L29.65,185.87"/><path class="cls-18" d="M302,189.27c-49.33-10.61-98.35-13.9-141.43-13.64h-.39c-43.08-.26-92.1,3-141.43,13.64l-.83.19,72.87,53.62c24.22-5.62,48.27-7.36,69.39-7.24h.39c21.12-.12,45.17,1.62,69.39,7.24l72.87-53.62Z"/><path class="cls-1" d="M165.09,175.61c42,0,89.27,3.42,136.86,13.66l.83.19-72.87,53.62a300.16,300.16,0,0,0-67.3-7.24H158a300.16,300.16,0,0,0-67.3,7.24L17.87,189.46l.83-.19c47.59-10.24,94.89-13.66,136.86-13.66l4.57,0h.39l4.57,0m0-2.91h-9.53c-48.9,0-95.15,4.61-137.47,13.72l-.88.19L11,188.05l5.1,3.76L89,245.43l1.08.79,1.31-.3A296.33,296.33,0,0,1,158,238.75h4.57a296.33,296.33,0,0,1,66.64,7.17l1.31.3,1.08-.79,72.87-53.62,5.11-3.77-6.18-1.43-.89-.19C260.24,177.31,214,172.7,165.09,172.7Z"/><path class="cls-1" d="M105.09,190.59l2.61-.29c2.72,4.58,4.06,6.88,6.67,11.5l-2.89.29-1.42-2.57c-2.14.22-3.21.34-5.35.59l-.83,2.81-2.82.34C102.62,198.19,103.42,195.65,105.09,190.59Zm3.73,6.71c-.84-1.48-1.27-2.22-2.12-3.69-.51,1.62-.76,2.44-1.26,4.06Z"/><path class="cls-1" d="M116.1,196.46c-.25-2.74-.38-4.1-.63-6.84l2.84-.25c.23,2.71.35,4.06.58,6.77.17,2,1.28,2.88,3,2.74s2.65-1.18,2.51-3.09l-.5-6.87,2.83-.2c.19,2.71.28,4.06.47,6.77.25,3.64-1.77,5.56-5.15,5.83S116.42,200,116.1,196.46Z"/><path class="cls-1" d="M130.29,198.79c.61-.79.91-1.19,1.53-2a6.14,6.14,0,0,0,3.87,1.25c1.14-.06,1.8-.52,1.77-1.22v0c0-.67-.49-1-2.64-1.4-2.59-.48-4.3-1-4.44-3.43v0c-.14-2.18,1.66-3.74,4.3-3.88a7.72,7.72,0,0,1,4.86,1.3c-.56.82-.83,1.23-1.38,2.06a6.15,6.15,0,0,0-3.4-1c-1.08.05-1.63.55-1.59,1.13v0c0,.79.61,1,2.85,1.43,2.62.5,4.11,1.32,4.2,3.42v0c.1,2.39-1.75,3.81-4.47,3.95A8.47,8.47,0,0,1,130.29,198.79Z"/><path class="cls-1" d="M146.07,190.22l-3.91.13c0-1-.06-1.46-.09-2.43,4.28-.16,6.42-.22,10.7-.29,0,1,0,1.47,0,2.45-1.56,0-2.35,0-3.91.07.09,3.83.13,5.75.22,9.58l-2.77.08C146.24,196,146.18,194.06,146.07,190.22Z"/><path class="cls-1" d="M155.88,187.6c2.36,0,3.55,0,5.91,0a5.29,5.29,0,0,1,3.75,1.25,3.59,3.59,0,0,1,1.07,2.76v0a3.76,3.76,0,0,1-2.77,3.7c1.23,1.73,1.84,2.59,3,4.33l-3.25,0c-1.07-1.55-1.61-2.32-2.69-3.86h-2.2c0,1.54,0,2.31,0,3.85H156C155.94,194.81,155.92,192.41,155.88,187.6Zm5.71,5.82c1.37,0,2.16-.68,2.16-1.69v0c0-1.14-.83-1.73-2.21-1.73h-2.81c0,1.38,0,2.07,0,3.45Z"/><path class="cls-1" d="M174.58,187.69l2.63.09c2,4.92,3,7.38,5,12.32l-2.9-.12c-.42-1.1-.63-1.65-1.06-2.74-2.14-.08-3.21-.12-5.36-.17l-1.22,2.67-2.83-.06C171.08,194.87,172.23,192.47,174.58,187.69Zm2.75,7.18c-.62-1.58-.93-2.38-1.57-4-.73,1.54-1.09,2.31-1.81,3.85Z"/><path class="cls-1" d="M185.66,188.22l2.84.16L188,198c2.53.14,3.79.22,6.31.4-.06,1-.1,1.44-.17,2.4-3.62-.25-5.43-.37-9.05-.55C185.29,195.43,185.41,193,185.66,188.22Z"/><path class="cls-1" d="M198.13,189l2.83.22c-.39,4.8-.59,7.19-1,12l-2.76-.22C197.57,196.22,197.76,193.82,198.13,189Z"/><path class="cls-1" d="M209.54,190l2.61.26c1.7,5.06,2.52,7.59,4.11,12.65l-2.89-.32-.85-2.82c-2.14-.23-3.21-.34-5.35-.54l-1.41,2.57-2.82-.26C205.52,196.86,206.84,194.55,209.54,190Zm2.23,7.35c-.51-1.63-.77-2.44-1.29-4.06-.84,1.48-1.26,2.22-2.09,3.71C209.74,197.08,210.42,197.15,211.77,197.3Z"/><path class="cls-1" d="M86.31,214.3l2.49-.39c2.75,2.57,4.11,3.87,6.79,6.49-.42-2.93-.62-4.4-1-7.34l2.67-.36,1.6,11.92-2.24.31c-2.75-2.71-4.14-4.05-7-6.72.47,3,.7,4.54,1.16,7.56l-2.6.41C87.44,221.42,87.06,219.05,86.31,214.3Z"/><path class="cls-1" d="M101.06,212.2c3.71-.47,5.57-.69,9.29-1.08l.25,2.34c-2.63.28-3.94.43-6.57.74.12,1,.18,1.46.29,2.42,2.3-.27,3.45-.4,5.76-.65l.25,2.34c-2.29.25-3.44.38-5.73.65.13,1,.19,1.51.31,2.51,2.62-.32,3.93-.46,6.55-.74l.25,2.34c-3.66.39-5.49.6-9.14,1.06C102,219.36,101.66,217,101.06,212.2Z"/><path class="cls-1" d="M112.79,210.87l2.9-.29c1.33,3.15,2,4.72,3.29,7.88.79-3.36,1.2-5,2-8.39l2.33-.19c1.36,3.18,2,4.77,3.36,8,.77-3.32,1.16-5,2-8.3l2.84-.18c-1.39,4.94-2.06,7.41-3.37,12.36l-2.31.17c-1.32-3.06-2-4.59-3.35-7.64-.85,3.23-1.27,4.85-2.08,8.08l-2.3.2C116,217.85,115,215.52,112.79,210.87Z"/><path class="cls-1" d="M140.66,218.91c2.54-3.19,3.83-4.78,6.45-7.93-2.62.07-3.94.12-6.56.23l-.1-2.32c4-.17,6.06-.24,10.1-.32,0,.8,0,1.21,0,2-2.65,3.14-4,4.71-6.51,7.89,2.66-.1,4-.13,6.67-.19l.05,2.32c-4,.08-6,.15-10.05.32C140.72,220.11,140.7,219.71,140.66,218.91Z"/><path class="cls-1" d="M154,208.51c3.74,0,5.61,0,9.34,0,0,.94,0,1.41,0,2.36-2.64,0-4,0-6.6,0,0,1,0,1.46,0,2.44,2.31,0,3.46,0,5.77,0,0,.94,0,1.42,0,2.36h-5.75c0,1,0,1.52,0,2.53,2.64,0,4,0,6.59,0,0,.94,0,1.41,0,2.35-3.67,0-5.51,0-9.19,0C154.11,215.73,154.08,213.32,154,208.51Z"/><path class="cls-1" d="M171,208.5l2.52.07c2,4.9,3,7.36,4.82,12.28l-2.77-.1c-.4-1.09-.61-1.64-1-2.73-2-.06-3.08-.09-5.13-.13l-1.15,2.68-2.71,0C167.67,215.71,168.76,213.3,171,208.5Zm2.67,7.16c-.61-1.58-.91-2.37-1.53-3.95l-1.72,3.86Z"/><path class="cls-1" d="M181.6,209l2.72.13c-.19,3.84-.29,5.77-.49,9.61,2.42.13,3.63.2,6,.35l-.15,2.4c-3.46-.22-5.19-.32-8.66-.47C181.28,216.16,181.38,213.76,181.6,209Z"/><path class="cls-1" d="M197.66,209.86l2.51.21c1.71,5,2.53,7.51,4.13,12.53l-2.76-.25c-.35-1.12-.52-1.68-.87-2.79-2-.18-3.07-.26-5.12-.42-.52,1-.79,1.57-1.3,2.61l-2.71-.19C193.94,216.86,195.16,214.52,197.66,209.86Zm2.26,7.29-1.3-4c-.78,1.5-1.17,2.25-1.94,3.75Z"/><path class="cls-1" d="M208.24,210.9l2.5.27c2,3.19,3,4.79,4.89,8,.36-2.94.53-4.41.88-7.35l2.68.33-1.5,11.93-2.25-.27c-1.95-3.32-3-5-5-8.27-.33,3-.49,4.56-.82,7.6l-2.61-.27C207.51,218.08,207.75,215.69,208.24,210.9Z"/><path class="cls-1" d="M223,212.64c1.92.26,2.88.39,4.8.67,3.86.56,6.12,3.55,5.59,6.89v0c-.53,3.34-3.53,5.52-7.3,5-1.87-.27-2.8-.4-4.67-.65C222.07,219.8,222.38,217.41,223,212.64Zm2.37,2.74-1,7.18,2.05.29a3.46,3.46,0,0,0,4.17-3,.06.06,0,0,1,0,0,3.49,3.49,0,0,0-3.14-4.13Z"/><path class="cls-1" d="M225.65,203.44a4,4,0,0,1-2.55.56c-1.59-.21-2.68-1.25-2.5-2.64v0c.13-1,1.85-1.82,1.9-2s-.45-1.12-.38-1.66v0c.14-1.08,1.19-2,2.82-1.74a2.14,2.14,0,0,1,2.1,2.3v0c-.15,1.06-1,1.58-2,1.82l1,1.2a15,15,0,0,0,1-1.24l1.25.89a14.38,14.38,0,0,1-1.33,1.51c.42.54.64.8,1.06,1.33l-1.46.71Zm-.89-1.13c-.56-.7-.83-1.05-1.39-1.74a1.17,1.17,0,0,0-.91.93v0c-.07.56.37,1,1.05,1.08A2,2,0,0,0,224.76,202.31Zm.65-4.14v0a.72.72,0,0,0-.7-.83.76.76,0,0,0-.92.69v0c-.05.35.16,1,.36,1A1.33,1.33,0,0,0,225.41,198.17Z"/><path class="cls-6" d="M86.8,69.42s74-14.59,147.38,0"/><path class="cls-4" d="M86.07,70l.45-.88c.74-.15,75.06-20.25,147.94,0l.45.88C162.65,55.59,86.81,69.81,86.07,70Z"/><polygon class="cls-19" points="242.54 25.37 247.85 19.87 260.67 65.28 254.6 67.93 242.54 25.37"/><polygon class="cls-20" points="77.91 25.37 72.6 19.87 59.79 65.28 65.85 67.93 77.91 25.37"/><polygon class="cls-21" points="160.29 1 161.2 1 197.54 8.89 195.27 15.16 160.56 7.59 160.29 7.59 160.29 1"/><polygon class="cls-22" points="160.33 283.52 160.33 291.81 187.39 271.38 183.33 266.19 160.33 283.52"/><polygon class="cls-23" points="231.23 250.33 229.91 243.08 259.63 221.22 263.92 226.21 231.23 250.33"/><polygon class="cls-24" points="89.33 250.33 90.64 243.08 60.92 221.22 56.64 226.21 89.33 250.33"/><path class="cls-25" d="M89.33,250.33s69-15.84,141.9,0l-1.32-7.25S166,226,90.65,243.08"/><path class="cls-26" d="M199.43,104.49h6.73L204,101.94V82.88L205.6,81h0l0,0,.53-.64h-6.73V96.55c0,2.91-1.88,5-5.55,5s-5.25-2.1-5.25-6.44V80.32h-6.74L184,82.88V95.43c0,2.53,0,4.91,2,7a9.38,9.38,0,0,0,6.87,2.61,10.33,10.33,0,0,0,6.58-2.19Z"/><path class="cls-26" d="M197.46,135.88h11c9.16,0,15.55-5.6,15.55-13.59s-5.88-13.11-15.35-13.11H197.46l2.66,3.2v20.29Zm7.69-23h3.16c6.67,0,10.2,3.39,10.2,9.83,0,6.91-5.62,9.36-10.88,9.36h-2.48Z"/><polygon class="cls-26" points="146.04 135.88 164.09 135.88 167.41 131.9 153.89 131.9 153.89 123.35 160.65 123.35 160.65 119.38 153.89 119.38 153.89 113.14 163.41 113.14 165.27 115.38 165.27 113.14 165.28 113.14 165.28 109.18 146.03 109.18 148.8 112.49 148.8 132.55 146.04 135.88"/><path class="cls-26" d="M153.8,104.49h7L158,101.94l-9.22-21.63H141.4l1.79,2.14-9.25,22h4.13l3.64-9h8.39ZM143,92.36l2.9-7.18,2.95,7.18Z"/><polygon class="cls-26" points="114.13 104.49 131.56 104.49 133.12 100.89 121.24 100.89 121.24 93.14 127.37 93.14 127.37 89.56 121.24 89.56 121.24 83.91 129.86 83.91 131.55 85.92 131.55 80.98 131.55 80.31 114.13 80.31 114.7 81 114.7 81 116.63 83.32 116.63 101.48 114.13 104.49"/><path class="cls-26" d="M143.31,135.76l.52-.1V121.94h-7.89l2.73,3.27v7.23a20.78,20.78,0,0,1-5.29.65c-6.39,0-11.39-4.76-11.39-10.84,0-5.93,4.49-10.06,10.93-10.06,1.48,0,6,.21,7.83,2.24l.13.15v-5.44l-.37-.07a32.24,32.24,0,0,0-6.59-.69c-10.52,0-17.59,5.79-17.59,14.42s6.8,14.11,17.34,14.11A54.33,54.33,0,0,0,143.31,135.76Z"/><path class="cls-26" d="M172.19,83.07c5.25,0,7.09,2.13,7.09,2.13V80.37a28.75,28.75,0,0,0-6.21-.68c-9.33,0-15.61,5.15-15.61,12.82s6,12.53,15.39,12.53a36.93,36.93,0,0,0,9-1.1V91.74h-7l2.43,2.91v6.43a19.11,19.11,0,0,1-4.71.57A9.78,9.78,0,0,1,162.48,92C162.48,86.75,166.48,83.07,172.19,83.07Z"/><polygon class="cls-26" points="98.27 81.01 98.27 101.8 96.03 104.49 99.19 104.49 99.64 104.48 111.45 104.48 114.45 100.81 102.95 100.81 102.95 81.01 102.95 78.48 102.95 77.85 96.03 77.85 98.27 80.54 98.27 81.01"/><polygon class="cls-26" points="91.62 140.57 91.62 140.57 95.03 136.46 81.27 136.46 81.27 107.15 81.27 103.49 72.45 103.49 75.46 107.1 75.46 138.18 72.45 141.79 85.6 141.79 90.61 141.79 91.62 140.57"/><polygon class="cls-26" points="210.39 83.32 210.39 101.48 207.88 104.49 224.24 104.49 227.25 100.89 215 100.89 215 93.14 221.13 93.14 221.13 89.56 215 89.56 215 83.91 223.61 83.91 225.3 85.92 225.3 81.02 225.3 80.31 207.88 80.31 210.39 83.32"/><path class="cls-26" d="M224.69,94.16a2.64,2.64,0,0,0,2.77,2.63,2.7,2.7,0,0,0,2.78-2.67,2.62,2.62,0,0,0-2.71-2.59h-.07A2.7,2.7,0,0,0,224.69,94.16Zm2.79-1.66A1.62,1.62,0,0,1,229,94.26a1.47,1.47,0,0,1-1.5,1.58A1.67,1.67,0,0,1,226,94.09,1.48,1.48,0,0,1,227.48,92.5Z"/><polygon class="cls-26" points="230.34 96.68 232.2 96.68 232.2 94.46 234.08 94.46 233.79 93.63 232.2 93.63 232.2 92.65 233.33 92.65 234.31 93.14 233.75 91.65 230.34 91.65 231 92.45 231 95.89 230.34 96.68"/><path class="cls-26" d="M95.89,135.88h24.24a14.89,14.89,0,0,1-4.15-4H103.75v-8.55h6.76v-4h-6.76v-6.24h9.47l1.86,2.24v-6.2H95.89l2.77,3.31v20.06Z"/><path class="cls-26" d="M250.9,130.21h0c0-.1,0-.2,0-.3,0-5.71-6-8.31-11.34-10.59-4.39-1.9-8.55-3.68-8.55-6.83s3.77-4.47,7-4.47a13.24,13.24,0,0,1,8.76,3.28l.78.77v-7.59l-.33-.1a31.18,31.18,0,0,0-8.74-1.22c-8.67,0-13.85,3.72-13.85,9.94,0,6.51,6,9.06,11.37,11.3,4.37,1.85,8.5,3.59,8.5,7.2,0,3.39-4.51,5.19-7.79,5.19a20.2,20.2,0,0,1-12.37-4.41l-1.07-.88,2.07,8.4.24.08a28.34,28.34,0,0,0,4.72,1.18l.91.13c.52.07,1,.14,1.57.18l.84.08c.81,0,1.62.09,2.46.09,7,0,11.65-3.2,13.67-7.14h0A10,10,0,0,0,250.9,130.21Z"/><polygon class="cls-26" points="175.2 135.94 175.2 116.5 194.24 135.9 194.24 111.89 196.98 109.17 189.18 109.18 189.18 123.79 174.78 109.23 174.72 109.18 168 109.18 170.14 111.75 170.14 132.55 167.37 135.88 167.5 135.88 167.44 135.94 175.2 135.94"/><path class="cls-26" d="M199.43,103.7h6.73L204,101.15V82.09l1.57-1.88h0l0,0,.53-.64h-6.73V95.76c0,2.92-1.88,5-5.55,5s-5.25-2.1-5.25-6.43V79.54h-6.74L184,82.09V94.64c0,2.53,0,4.91,2,7a9.35,9.35,0,0,0,6.87,2.62,10.39,10.39,0,0,0,6.58-2.19Z"/><path class="cls-26" d="M197.46,135.09h11c9.16,0,15.55-5.59,15.55-13.58s-5.88-13.12-15.35-13.12H197.46l2.66,3.2v20.29Zm7.69-23,3.16,0c6.67,0,10.2,3.38,10.2,9.82,0,6.91-5.62,9.37-10.88,9.37h-2.48Z"/><polygon class="cls-26" points="146.04 135.09 164.09 135.09 167.41 131.12 153.89 131.12 153.89 122.56 160.65 122.56 160.65 118.59 153.89 118.59 153.89 112.36 163.41 112.36 165.27 114.6 165.27 112.36 165.28 112.36 165.28 108.39 146.03 108.39 148.8 111.71 148.8 131.77 146.04 135.09"/><path class="cls-26" d="M153.8,103.71h7L158,101.15l-9.22-21.62H141.4l1.79,2.13-9.25,22h4.13l3.64-9h8.39ZM143,91.58l2.9-7.18,2.95,7.18Z"/><polygon class="cls-26" points="114.13 103.7 131.56 103.7 133.12 100.11 121.24 100.11 121.24 92.36 127.37 92.36 127.37 88.77 121.24 88.77 121.24 83.12 129.86 83.12 131.55 85.14 131.55 80.2 131.55 79.53 114.13 79.53 114.7 80.21 114.7 80.21 116.63 82.53 116.63 100.69 114.13 103.7"/><path class="cls-26" d="M143.31,135l.52-.1V121.15h-7.89l2.73,3.28v7.23a20.78,20.78,0,0,1-5.29.64c-6.39,0-11.39-4.75-11.39-10.84,0-5.93,4.49-10.06,10.93-10.06,1.48,0,6,.21,7.83,2.25l.13.14v-5.43l-.37-.08a33,33,0,0,0-6.59-.69c-10.52,0-17.59,5.8-17.59,14.43s6.8,14.1,17.34,14.1A53.41,53.41,0,0,0,143.31,135Z"/><path class="cls-26" d="M172.19,82.29c5.25,0,7.09,2.13,7.09,2.13V79.59a28.36,28.36,0,0,0-6.21-.69c-9.33,0-15.61,5.16-15.61,12.83s6,12.52,15.39,12.52a36.93,36.93,0,0,0,9-1.1V91h-7l2.43,2.91v6.42a19.11,19.11,0,0,1-4.71.58,9.78,9.78,0,0,1-10.12-9.65C162.48,86,166.48,82.29,172.19,82.29Z"/><polygon class="cls-26" points="98.27 80.23 98.27 101.02 96.03 103.71 99.19 103.71 99.64 103.7 111.45 103.7 114.45 100.03 102.95 100.03 102.95 80.23 102.95 77.7 102.95 77.06 96.03 77.06 98.27 79.76 98.27 80.23"/><polygon class="cls-26" points="91.62 139.78 91.62 139.79 95.03 135.67 81.27 135.67 81.27 106.37 81.27 102.71 72.45 102.71 75.46 106.31 75.46 137.4 72.45 141.01 85.6 141.01 90.61 141.01 91.62 139.78"/><polygon class="cls-26" points="210.39 82.53 210.39 100.69 207.88 103.7 224.24 103.7 227.25 100.11 215 100.11 215 92.36 221.13 92.36 221.13 88.77 215 88.77 215 83.12 223.61 83.12 225.3 85.14 225.3 80.23 225.3 79.53 207.88 79.53 210.39 82.53"/><path class="cls-26" d="M224.69,93.37A2.64,2.64,0,0,0,227.46,96a2.7,2.7,0,0,0,2.78-2.67,2.61,2.61,0,0,0-2.71-2.59h-.07A2.7,2.7,0,0,0,224.69,93.37Zm2.79-1.65A1.62,1.62,0,0,1,229,93.48a1.46,1.46,0,0,1-1.5,1.57A1.67,1.67,0,0,1,226,93.3,1.47,1.47,0,0,1,227.48,91.72Z"/><polygon class="cls-26" points="230.34 95.89 232.2 95.89 232.2 93.68 234.08 93.68 233.79 92.85 232.2 92.85 232.2 91.87 233.33 91.87 234.31 92.36 233.75 90.86 230.34 90.86 231 91.66 231 95.11 230.34 95.89"/><path class="cls-26" d="M95.89,135.09h24.24a14.93,14.93,0,0,1-4.15-4H103.75v-8.56h6.76v-4h-6.76v-6.23h9.47l1.86,2.24v-6.21H95.89l2.77,3.32v20.06Z"/><path class="cls-26" d="M250.9,129.42h0c0-.1,0-.2,0-.29,0-5.72-6-8.31-11.34-10.6-4.39-1.89-8.55-3.68-8.55-6.82,0-3.31,3.77-4.48,7-4.48a13.2,13.2,0,0,1,8.76,3.29l.78.77v-7.6l-.33-.09a31.18,31.18,0,0,0-8.74-1.22c-8.67,0-13.85,3.72-13.85,9.94,0,6.51,6,9.05,11.37,11.3,4.37,1.84,8.5,3.58,8.5,7.2,0,3.39-4.51,5.18-7.79,5.18a20.2,20.2,0,0,1-12.37-4.41l-1.07-.87,2.07,8.4.24.07a29.36,29.36,0,0,0,4.72,1.19l.91.13c.52.07,1,.13,1.57.18l.84.07c.81.05,1.62.09,2.46.09,7,0,11.65-3.2,13.67-7.13h0A10,10,0,0,0,250.9,129.42Z"/><polygon class="cls-26" points="175.2 135.16 175.2 115.71 194.24 135.11 194.24 111.11 196.98 108.39 189.18 108.39 189.18 123.01 174.78 108.45 174.72 108.39 168 108.39 170.14 110.96 170.14 131.77 167.37 135.09 167.5 135.09 167.44 135.16 175.2 135.16"/><path class="cls-1" d="M199.43,102.42h6.73L204,99.87V80.81l1.57-1.88h0l0,0,.53-.65h-6.73V94.48c0,2.91-1.88,5-5.55,5s-5.25-2.1-5.25-6.43V78.25h-6.74L184,80.81V93.36c0,2.53,0,4.91,2,7a9.34,9.34,0,0,0,6.87,2.61,10.33,10.33,0,0,0,6.58-2.19Z"/><path class="cls-1" d="M197.46,133.81h11c9.16,0,15.55-5.59,15.55-13.59s-5.88-13.11-15.35-13.11H197.46l2.66,3.2V130.6Zm7.69-23h3.16c6.67,0,10.2,3.39,10.2,9.83,0,6.91-5.62,9.36-10.88,9.36h-2.48Z"/><polygon class="cls-1" points="146.04 133.81 164.09 133.81 167.41 129.83 153.89 129.83 153.89 121.28 160.65 121.28 160.65 117.31 153.89 117.31 153.89 111.07 163.41 111.07 165.27 113.31 165.27 111.07 165.28 111.07 165.28 107.11 146.03 107.11 148.8 110.42 148.8 130.48 146.04 133.81"/><path class="cls-1" d="M153.8,102.42h7L158,99.87l-9.22-21.63H141.4l1.79,2.14-9.25,22h4.13l3.64-9h8.39ZM143,90.29l2.9-7.18,2.95,7.18Z"/><polygon class="cls-1" points="114.13 102.42 131.56 102.42 133.12 98.83 121.24 98.83 121.24 91.08 127.37 91.08 127.37 87.49 121.24 87.49 121.24 81.84 129.86 81.84 131.55 83.85 131.55 78.91 131.55 78.24 114.13 78.24 114.7 78.93 114.7 78.93 116.63 81.25 116.63 99.41 114.13 102.42"/><path class="cls-1" d="M143.31,133.69l.52-.1V119.87h-7.89l2.73,3.27v7.23a20.78,20.78,0,0,1-5.29.65C127,131,122,126.26,122,120.18s4.49-10.06,10.93-10.06c1.48,0,6,.21,7.83,2.24l.13.15v-5.44l-.37-.07a32.24,32.24,0,0,0-6.59-.69c-10.52,0-17.59,5.79-17.59,14.42s6.8,14.11,17.34,14.11A54.33,54.33,0,0,0,143.31,133.69Z"/><path class="cls-1" d="M172.19,81c5.25,0,7.09,2.13,7.09,2.13V78.3a28.75,28.75,0,0,0-6.21-.68c-9.33,0-15.61,5.15-15.61,12.82s6,12.53,15.39,12.53a36.93,36.93,0,0,0,9-1.1V89.67h-7l2.43,2.91V99a19.11,19.11,0,0,1-4.71.57,9.78,9.78,0,0,1-10.12-9.64C162.48,84.68,166.48,81,172.19,81Z"/><polygon class="cls-1" points="98.27 78.94 98.27 99.73 96.03 102.42 99.19 102.42 99.64 102.41 111.45 102.41 114.45 98.74 102.95 98.74 102.95 78.94 102.95 76.41 102.95 75.78 96.03 75.78 98.27 78.47 98.27 78.94"/><polygon class="cls-1" points="91.62 138.5 91.62 138.5 95.03 134.39 81.27 134.39 81.27 105.08 81.27 101.42 72.45 101.42 75.46 105.03 75.46 136.11 72.45 139.72 85.6 139.72 90.61 139.72 91.62 138.5"/><polygon class="cls-1" points="210.39 81.25 210.39 99.41 207.88 102.42 224.24 102.42 227.25 98.83 215 98.83 215 91.08 221.13 91.08 221.13 87.49 215 87.49 215 81.84 223.61 81.84 225.3 83.85 225.3 78.95 225.3 78.24 207.88 78.24 210.39 81.25"/><path class="cls-1" d="M224.69,92.09a2.65,2.65,0,0,0,2.77,2.64,2.7,2.7,0,0,0,2.78-2.68,2.62,2.62,0,0,0-2.71-2.59h-.07A2.7,2.7,0,0,0,224.69,92.09Zm2.79-1.66A1.62,1.62,0,0,1,229,92.19a1.46,1.46,0,0,1-1.5,1.58A1.67,1.67,0,0,1,226,92,1.48,1.48,0,0,1,227.48,90.43Z"/><polygon class="cls-1" points="230.34 94.61 232.2 94.61 232.2 92.39 234.08 92.39 233.79 91.56 232.2 91.56 232.2 90.58 233.33 90.58 234.31 91.08 233.75 89.58 230.34 89.58 231 90.38 231 93.82 230.34 94.61"/><path class="cls-1" d="M95.89,133.81h24.24a14.89,14.89,0,0,1-4.15-4H103.75v-8.55h6.76v-4h-6.76v-6.24h9.47l1.86,2.24v-6.2H95.89l2.77,3.31v20.06Z"/><path class="cls-1" d="M250.9,128.14h0c0-.1,0-.2,0-.3,0-5.71-6-8.31-11.34-10.59-4.39-1.9-8.55-3.68-8.55-6.83,0-3.3,3.77-4.47,7-4.47a13.2,13.2,0,0,1,8.76,3.29l.78.76v-7.59l-.33-.1a31.18,31.18,0,0,0-8.74-1.22c-8.67,0-13.85,3.72-13.85,9.94,0,6.51,6,9.06,11.37,11.3,4.37,1.85,8.5,3.59,8.5,7.2,0,3.39-4.51,5.19-7.79,5.19a20.2,20.2,0,0,1-12.37-4.41l-1.07-.87,2.07,8.39.24.08a28.34,28.34,0,0,0,4.72,1.18l.91.14c.52.07,1,.13,1.57.18l.84.07c.81.05,1.62.09,2.46.09,7,0,11.65-3.2,13.67-7.14h0A10,10,0,0,0,250.9,128.14Z"/><polygon class="cls-1" points="175.2 133.87 175.2 114.43 194.24 133.83 194.24 109.83 196.98 107.1 189.18 107.11 189.18 121.72 174.78 107.16 174.72 107.11 168 107.11 170.14 109.68 170.14 130.48 167.37 133.81 167.5 133.81 167.44 133.87 175.2 133.87"/></g></g></svg>