<svg xmlns="http://www.w3.org/2000/svg" viewBox="0 0 207.28 190.71"><defs><style>.cls-1{fill:#73182c;}.cls-2{fill:#f2f2f2;}</style></defs><title>QLD_Simple</title><g id="Layer_2" data-name="Layer 2"><g id="Layer_1-2" data-name="Layer 1"><path class="cls-1" d="M54.63,103.18a1.81,1.81,0,0,1-1.77-1.91v0a1.8,1.8,0,0,1,1.77-1.9,2.24,2.24,0,0,1,1.56.69l.85-1a3.28,3.28,0,0,0-5.58,2.22h0a3.08,3.08,0,0,0,3.13,3.14,3.13,3.13,0,0,0,2.5-1.09l-.86-.86A2.19,2.19,0,0,1,54.63,103.18Z"/><polygon class="cls-1" points="65.03 100.63 62.55 100.63 62.55 98.21 61.21 98.21 61.21 104.31 62.55 104.31 62.55 101.87 65.03 101.87 65.03 104.31 66.37 104.31 66.37 98.21 65.03 98.21 65.03 100.63"/><path class="cls-1" d="M73,98.17l-2.61,6.15h1.37l.55-1.37h2.58l.56,1.37h1.41l-2.62-6.15Zm-.21,3.59.81-2,.82,2Z"/><polygon class="cls-1" points="83.88 100.8 82.28 98.21 80.83 98.21 80.83 104.31 82.15 104.31 82.15 100.36 83.85 102.94 83.88 102.94 85.6 100.33 85.6 104.31 86.94 104.31 86.94 98.21 85.49 98.21 83.88 100.8"/><path class="cls-1" d="M93.94,98.21H91.45v6.11h1.34v-1.83h1a2.19,2.19,0,0,0,2.47-2.15v0A2.09,2.09,0,0,0,93.94,98.21Zm1,2.16a.94.94,0,0,1-1.06.92H92.79V99.42h1c.67,0,1.09.33,1.09.93Z"/><rect class="cls-1" x="100.39" y="98.21" width="1.34" height="6.1"/><path class="cls-1" d="M109.29,98.11a3.16,3.16,0,0,0-3.25,3.16h0a3.24,3.24,0,0,0,6.48,0v0A3.12,3.12,0,0,0,109.29,98.11Zm1.83,3.17a1.82,1.82,0,0,1-1.83,1.9,1.85,1.85,0,0,1-1.85-1.91v0a1.82,1.82,0,0,1,1.83-1.9,1.86,1.86,0,0,1,1.85,1.92Z"/><polygon class="cls-1" points="120.87 101.97 118.01 98.21 116.77 98.21 116.77 104.31 118.09 104.31 118.09 100.44 121.05 104.31 122.19 104.31 122.19 98.21 120.87 98.21 120.87 101.97"/><path class="cls-1" d="M129.19,100.66c-1.06-.27-1.32-.4-1.32-.8v0c0-.29.27-.53.79-.53a2.89,2.89,0,0,1,1.58.6l.7-1a3.58,3.58,0,0,0-2.27-.77,1.91,1.91,0,0,0-2.13,1.84h0c0,1.21.79,1.55,2,1.87,1,.26,1.23.43,1.23.77v0c0,.36-.33.58-.88.58a2.81,2.81,0,0,1-1.82-.74l-.8,1a3.92,3.92,0,0,0,2.59,1c1.32,0,2.24-.68,2.24-1.89v0C131.12,101.43,130.43,101,129.19,100.66Z"/><polygon class="cls-1" points="139.16 100.63 136.69 100.63 136.69 98.21 135.34 98.21 135.34 104.31 136.69 104.31 136.69 101.87 139.16 101.87 139.16 104.31 140.51 104.31 140.51 98.21 139.16 98.21 139.16 100.63"/><rect class="cls-1" x="145.08" y="98.21" width="1.34" height="6.1"/><path class="cls-1" d="M153.5,98.21H151v6.11h1.35v-1.83h1a2.18,2.18,0,0,0,2.46-2.15v0A2.09,2.09,0,0,0,153.5,98.21Zm1,2.16a.94.94,0,0,1-1.06.92h-1.06V99.42h1c.68,0,1.09.33,1.09.93Z"/><path class="cls-1" d="M60.25,31.8l3-.46c-.16,1.27-.25,1.9-.42,3.17l2.34-.34,1.05-8.33-2.28.33c-.16,1.25-.25,1.87-.41,3.12l-3,.46L61,26.63c-.91.14-1.13.22-2,.37-.51,3.35-1,5-1.51,8.37L59.79,35C60,33.71,60.06,33.07,60.25,31.8Z"/><path class="cls-1" d="M70.64,25.34l-2.28.29-1,8.32,2.35-.3C70.08,30.32,70.27,28.66,70.64,25.34Z"/><path class="cls-1" d="M76.23,33.15A6.91,6.91,0,0,0,80,31.51l.3-3.72c-1.53.13-2.3.21-3.83.37l-.15,1.68L78,29.67c0,.41,0,.61-.09,1a2.72,2.72,0,0,1-1.38.48,1.75,1.75,0,0,1-2.05-2.07v0a2.79,2.79,0,0,1,2.34-2.49,2.43,2.43,0,0,1,1.94.58l1.48-1.75A4,4,0,0,0,77,24.53a5.59,5.59,0,0,0-4.89,4.81v0C71.82,31.88,73.59,33.42,76.23,33.15Z"/><path class="cls-1" d="M84.48,29.19c1.19-.09,1.79-.13,3-.2-.07,1.25-.11,1.88-.18,3.14L89.65,32c.15-3.3.23-5,.39-8.26l-2.29.13c-.07,1.24-.1,1.86-.17,3.1-1.19.07-1.78.11-3,.2.08-1.24.13-1.86.21-3.1l-2.29.18c-.25,3.31-.37,5-.62,8.28l2.36-.19C84.35,31.08,84.39,30.45,84.48,29.19Z"/><path class="cls-1" d="M98,29.93A4.26,4.26,0,0,1,95.26,29c-.53.63-.8.94-1.35,1.57a5.82,5.82,0,0,0,4,1.25c2.06,0,3.45-1,3.46-2.73v0c0-1.54-1.19-2.14-3.09-2.53-1.16-.23-1.44-.39-1.44-.77v0c0-.31.29-.53.85-.55A3.89,3.89,0,0,1,100,26c.47-.66.7-1,1.17-1.63a5,5,0,0,0-3.39-1.05c-2,.05-3.23,1.2-3.28,2.73v0c-.06,1.69,1.32,2.12,3.09,2.49,1.14.24,1.42.42,1.42.77v0C99,29.7,98.62,29.92,98,29.93Z"/><path class="cls-1" d="M107.22,31.82A4.19,4.19,0,0,0,110.94,30l-1.79-1.27a2.23,2.23,0,0,1-1.89,1,2.1,2.1,0,0,1-2-2.22v0a2,2,0,0,1,2-2.18,2.33,2.33,0,0,1,1.83,1L110.75,25a4.38,4.38,0,0,0-7.9,2.49v0A4.27,4.27,0,0,0,107.22,31.82Z"/><path class="cls-1" d="M115,31.84c0-1.25-.07-1.88-.12-3.14l3,.14.15,3.14,2.36.14c-.19-3.31-.28-5-.46-8.27l-2.29-.13.15,3.09c-1.19-.06-1.79-.09-3-.13,0-1.24-.07-1.86-.12-3.1l-2.29-.08c.1,3.31.14,5,.24,8.26Z"/><path class="cls-1" d="M126.88,32.7c2.62.22,4.41-1.51,4.19-3.89v0a5.35,5.35,0,0,0-4.82-4.7,3.68,3.68,0,0,0-4.19,4v0A5.16,5.16,0,0,0,126.88,32.7Zm-.5-6.54a2.62,2.62,0,0,1,2.31,2.42v0a1.74,1.74,0,0,1-2,2,2.61,2.61,0,0,1-2.32-2.41v0A1.77,1.77,0,0,1,126.38,26.16Z"/><path class="cls-1" d="M137.62,33.74c2.61.32,4.33-1.34,4-3.73v0a5.87,5.87,0,0,0-5-4.89,3.38,3.38,0,0,0-4,3.81v0A5.65,5.65,0,0,0,137.62,33.74Zm-.72-6.57a2.89,2.89,0,0,1,2.38,2.52v0a1.62,1.62,0,0,1-1.87,2,2.86,2.86,0,0,1-2.39-2.5v0A1.64,1.64,0,0,1,136.9,27.17Z"/><path class="cls-1" d="M150.48,35.37c-.13-.82-.19-1.22-.31-2l-4.06-.66c-.35-2.52-.52-3.79-.87-6.31L143,26c.43,3.33.65,5,1.08,8.33C146.62,34.72,147.91,34.93,150.48,35.37Z"/><path class="cls-1" d="M133.35,52.47l0,0,.34-.42H129.3V62.67c0,1.91-1.24,3.31-3.64,3.31s-3.45-1.38-3.45-4.22V52h-4.42l1.4,1.67v8.23c0,1.66,0,3.22,1.29,4.61a6.12,6.12,0,0,0,4.5,1.71,6.82,6.82,0,0,0,4.32-1.43v1.06h4.41l-1.4-1.68V53.7Z"/><path class="cls-1" d="M135.36,71H128l1.75,2.1v13.3L128,88.47h7.23c6,0,10.2-3.67,10.2-8.91S141.58,71,135.36,71ZM134.68,86h-1.63V73.41h2.07c4.38,0,6.69,2.22,6.69,6.44C141.81,84.4,138.13,86,134.68,86Z"/><polygon class="cls-1" points="108.29 85.86 99.42 85.86 99.42 80.25 103.86 80.25 103.86 77.65 99.42 77.65 99.42 73.56 105.66 73.56 106.89 75.03 106.89 73.56 106.89 73.56 106.89 70.96 94.27 70.96 96.08 73.13 96.08 86.29 94.27 88.47 106.11 88.47 108.29 85.86"/><path class="cls-1" d="M99.36,67.88H104l-1.9-1.68L96,52h-4.8l1.18,1.4L86.34,67.88H89L91.43,62h5.51Zm-7.1-8,1.9-4.71,1.94,4.71Z"/><polygon class="cls-1" points="85.8 65.52 78 65.52 78 60.44 82.03 60.44 82.03 58.08 78 58.08 78 54.38 83.66 54.38 84.77 55.7 84.77 52.46 84.77 52.02 73.34 52.02 73.71 52.47 74.98 53.99 74.98 65.9 73.34 67.88 84.77 67.88 85.8 65.52"/><path class="cls-1" d="M86.16,89.14a34.83,34.83,0,0,0,6.32-.75l.34-.06v-9H87.65l1.79,2.15v4.74a14.1,14.1,0,0,1-3.47.42,7.22,7.22,0,0,1-7.48-7.11c0-3.89,3-6.6,7.18-6.6,1,0,3.9.14,5.13,1.47l.09.1V70.93l-.24-.05a21.82,21.82,0,0,0-4.33-.45c-6.9,0-11.54,3.8-11.54,9.46S79.25,89.14,86.16,89.14Z"/><path class="cls-1" d="M117.79,67.52v-8h-4.6l1.6,1.92v4.21a12.51,12.51,0,0,1-3.09.38,6.42,6.42,0,0,1-6.64-6.33c0-3.45,2.62-5.86,6.37-5.86,3.44,0,4.65,1.4,4.65,1.4V52.06a18.76,18.76,0,0,0-4.07-.45c-6.13,0-10.25,3.38-10.25,8.41s4,8.22,10.1,8.22A24.23,24.23,0,0,0,117.79,67.52Z"/><polygon class="cls-1" points="62.93 66.12 61.46 67.88 63.54 67.88 63.84 67.88 71.58 67.88 73.55 65.47 66.01 65.47 66.01 52.48 66.01 50.82 66.01 50.4 61.46 50.4 62.93 52.17 62.93 52.48 62.93 66.12"/><polygon class="cls-1" points="51.78 69.63 51.78 67.22 45.99 67.22 47.97 69.59 47.97 89.98 45.99 92.35 54.62 92.35 57.91 92.35 58.57 91.55 58.58 91.55 60.81 88.85 51.78 88.85 51.78 69.63"/><polygon class="cls-1" points="134.84 67.88 145.57 67.88 147.54 65.52 139.51 65.52 139.51 60.44 143.53 60.44 143.53 58.08 139.51 58.08 139.51 54.38 145.16 54.38 146.27 55.7 146.27 52.48 146.27 52.02 134.84 52.02 136.49 53.99 136.49 65.9 134.84 67.88"/><path class="cls-1" d="M149.51,61.08a1.72,1.72,0,0,0-1.78-1.7h0a1.77,1.77,0,0,0-1.82,1.72,1.73,1.73,0,0,0,1.82,1.73A1.77,1.77,0,0,0,149.51,61.08Zm-2.81,0a1,1,0,0,1,1-1,1.07,1.07,0,0,1,1,1.16,1,1,0,0,1-1,1A1.09,1.09,0,0,1,146.7,61.05Z"/><polygon class="cls-1" points="151.53 60.11 152.18 60.44 151.81 59.46 149.58 59.46 150.01 59.98 150.01 62.24 149.58 62.76 150.8 62.76 150.8 61.3 152.03 61.3 151.84 60.75 150.8 60.75 150.8 60.11 151.53 60.11"/><path class="cls-1" d="M74.55,85.86h-8V80.25H71v-2.6H66.53V73.56h6.21L74,75V71H61.37l1.82,2.17V86.29l-1.82,2.18h15.9A9.73,9.73,0,0,1,74.55,85.86Z"/><path class="cls-1" d="M145.84,73.53c0,4.27,4,5.94,7.45,7.41,2.87,1.21,5.58,2.35,5.58,4.72s-3,3.41-5.11,3.41a13.22,13.22,0,0,1-8.11-2.9l-.7-.57,1.36,5.51.15,0a19,19,0,0,0,3.1.78l.59.08c.34,0,.69.09,1,.12l.54,0c.53,0,1.07.06,1.62.06,4.59,0,7.64-2.1,9-4.68h0a6.52,6.52,0,0,0,.75-2.82h0a1.21,1.21,0,0,0,0-.19c0-3.75-3.95-5.45-7.43-7-2.88-1.25-5.61-2.42-5.61-4.48s2.47-2.94,4.59-2.94a8.67,8.67,0,0,1,5.74,2.16l.51.5v-5l-.21-.06a20.31,20.31,0,0,0-5.74-.8C149.23,67,145.84,69.45,145.84,73.53Z"/><polygon class="cls-1" points="122.57 70.96 122.57 80.54 113.13 70.99 113.08 70.96 108.68 70.96 110.08 72.64 110.08 86.29 108.26 88.47 108.35 88.47 108.31 88.51 113.4 88.51 113.4 75.76 125.89 88.48 125.89 72.74 127.69 70.95 122.57 70.96"/><path class="cls-1" d="M152.57,45.23l-.29-.58c-47.81-13.28-96.57-.09-97.05,0l-.3.58C55.42,45.13,105.17,35.8,152.57,45.23Z"/><path class="cls-1" d="M198,119.41l-.57-.12c-2.14-.46-4.31-.91-6.48-1.33L161,12.31,104.87.13,104.26,0H103L46.27,12.31,16.31,118c-2.17.42-4.34.87-6.46,1.33L0,121.47l57,42L59,163c1.93-.46,3.9-.87,6-1.27l38.72,29,38.7-29c2.07.4,4,.81,6,1.27l1.93.44,57-42Zm-94.38,65.92-33.1-24.77c1.17-.16,6.26-.79,13.81-1.3l19.29,12.51,19.42-12.6c4.49.31,9.07.77,13.66,1.39ZM120,159l-16.33,10.6L87.44,159.06A287.77,287.77,0,0,1,120,159ZM32.42,115.68l21.52-95,49.7-11.2,49.71,11.2,21.49,94.85C115.25,107.5,56.72,112.75,32.42,115.68Zm153.79,1.59c-3.11-.51-6.23-1-9.34-1.42L155,19.11,103.86,7.6l-.12,0L52.34,19.11,30.4,115.93c-5.15.64-8.41,1.13-9.4,1.29L49.71,16,103.49,4.31h.3l.15,0L157.58,16l28.73,101.31Z"/><path class="cls-2" d="M95.7,142.5,94,141a8.48,8.48,0,0,1-4.61,1.33,8,8,0,0,1-8.22-8v0a8,8,0,0,1,8.26-8,8,8,0,0,1,8.22,8v.05a8,8,0,0,1-1.37,4.45l1.59,1.35Zm-4.23-3.77-2.53-2.15,2.18-2.44,2.54,2.31a5.36,5.36,0,0,0,.42-2.13v0a4.71,4.71,0,0,0-4.69-4.88,4.64,4.64,0,0,0-4.66,4.83v.05a4.71,4.71,0,0,0,4.7,4.87A4.66,4.66,0,0,0,91.47,138.73Z"/><path class="cls-2" d="M101.8,126.52h3.41v12.41h7.73V142H101.8Z"/><path class="cls-2" d="M116.62,126.52h6c4.87,0,8.24,3.35,8.24,7.71v.05c0,4.36-3.37,7.75-8.24,7.75h-6ZM120,129.6V139h2.64a4.41,4.41,0,0,0,4.67-4.63v0a4.45,4.45,0,0,0-4.67-4.68Z"/></g></g></svg>