<?xml version="1.0" encoding="utf-8"?>
<!-- Generator: Adobe Illustrator 23.1.0, SVG Export Plug-In . SVG Version: 6.00 Build 0)  -->
<svg version="1.1" id="Layer_1" xmlns="http://www.w3.org/2000/svg" xmlns:xlink="http://www.w3.org/1999/xlink" x="0px" y="0px"
	 viewBox="0 0 207.3 190.7" style="enable-background:new 0 0 207.3 190.7;" xml:space="preserve">
<style type="text/css">
	.st0{fill:#73182C;}
</style>
<title>QLD_Simple</title>
<g>
	<g id="Layer_1-2">
		<path class="st0" d="M54.6,103.2c-1,0-1.8-0.8-1.8-1.8c0,0,0,0,0-0.1l0,0c-0.1-1,0.7-1.8,1.7-1.9c0,0,0,0,0.1,0
			c0.6,0,1.2,0.3,1.6,0.7l0.8-1c-1.3-1.3-3.4-1.3-4.6,0c-0.6,0.6-0.9,1.4-0.9,2.2l0,0c0,1.7,1.3,3.1,3,3.1c0,0,0.1,0,0.1,0
			c1,0,1.9-0.4,2.5-1.1l-0.9-0.9C55.8,102.9,55.2,103.2,54.6,103.2z"/>
		<polygon class="st0" points="65,100.6 62.5,100.6 62.5,98.2 61.2,98.2 61.2,104.3 62.5,104.3 62.5,101.9 65,101.9 65,104.3 
			66.4,104.3 66.4,98.2 65,98.2 		"/>
		<path class="st0" d="M73,98.2l-2.6,6.2h1.4l0.6-1.4h2.6l0.6,1.4h1.4l-2.6-6.2H73z M72.8,101.8l0.8-2l0.8,2H72.8z"/>
		<polygon class="st0" points="83.9,100.8 82.3,98.2 80.8,98.2 80.8,104.3 82.2,104.3 82.2,100.4 83.8,102.9 83.9,102.9 85.6,100.3 
			85.6,104.3 86.9,104.3 86.9,98.2 85.5,98.2 		"/>
		<path class="st0" d="M93.9,98.2h-2.5v6.1h1.3v-1.8h1c1.2,0.2,2.3-0.7,2.5-1.9c0-0.1,0-0.2,0-0.3l0,0c0-1.2-0.9-2.1-2-2.1
			C94.1,98.2,94,98.2,93.9,98.2z M94.9,100.4c0,0.5-0.4,0.9-1,0.9c0,0-0.1,0-0.1,0h-1.1v-1.9h1C94.5,99.4,94.9,99.8,94.9,100.4
			L94.9,100.4z"/>
		<rect x="100.4" y="98.2" class="st0" width="1.3" height="6.1"/>
		<path class="st0" d="M109.3,98.1c-1.7,0-3.2,1.3-3.2,3.1c0,0,0,0.1,0,0.1l0,0c0,1.8,1.5,3.2,3.2,3.2c1.8,0,3.2-1.5,3.2-3.2l0,0
			c0-1.7-1.4-3.1-3.1-3.2C109.4,98.1,109.3,98.1,109.3,98.1z M111.1,101.3c0,1-0.7,1.9-1.7,1.9c0,0-0.1,0-0.1,0
			c-1,0-1.9-0.8-1.9-1.8c0,0,0,0,0-0.1l0,0c0-1,0.7-1.9,1.7-1.9c0,0,0.1,0,0.1,0C110.3,99.4,111.1,100.2,111.1,101.3
			C111.1,101.3,111.1,101.3,111.1,101.3L111.1,101.3z"/>
		<polygon class="st0" points="120.9,102 118,98.2 116.8,98.2 116.8,104.3 118.1,104.3 118.1,100.4 121.1,104.3 122.2,104.3 
			122.2,98.2 120.9,98.2 		"/>
		<path class="st0" d="M129.2,100.7c-1.1-0.3-1.3-0.4-1.3-0.8l0,0c0-0.3,0.3-0.5,0.8-0.5c0.6,0,1.1,0.2,1.6,0.6l0.7-1
			c-0.6-0.5-1.4-0.8-2.3-0.8c-1-0.1-2,0.6-2.1,1.7c0,0.1,0,0.1,0,0.2l0,0c0,1.2,0.8,1.6,2,1.9c1,0.3,1.2,0.4,1.2,0.8l0,0
			c0,0.4-0.3,0.6-0.9,0.6c-0.7,0-1.3-0.3-1.8-0.7l-0.8,1c0.7,0.6,1.6,1,2.6,1c1.3,0,2.2-0.7,2.2-1.9l0,0
			C131.1,101.4,130.4,101,129.2,100.7z"/>
		<polygon class="st0" points="139.2,100.6 136.7,100.6 136.7,98.2 135.3,98.2 135.3,104.3 136.7,104.3 136.7,101.9 139.2,101.9 
			139.2,104.3 140.5,104.3 140.5,98.2 139.2,98.2 		"/>
		<rect x="145.1" y="98.2" class="st0" width="1.3" height="6.1"/>
		<path class="st0" d="M153.5,98.2H151v6.1h1.4v-1.8h1c1.2,0.2,2.3-0.7,2.4-1.9c0-0.1,0-0.2,0-0.3l0,0c0-1.2-0.9-2.1-2-2.1
			C153.7,98.2,153.6,98.2,153.5,98.2z M154.5,100.4c0,0.5-0.4,0.9-1,0.9c0,0-0.1,0-0.1,0h-1.1v-1.9h1
			C154.1,99.4,154.5,99.8,154.5,100.4L154.5,100.4z"/>
		<path class="st0" d="M60.3,31.8l3-0.5c-0.2,1.3-0.3,1.9-0.4,3.2l2.3-0.3l1.1-8.3l-2.3,0.3c-0.2,1.3-0.3,1.9-0.4,3.1l-3,0.5
			l0.5-3.1c-0.9,0.1-1.1,0.2-2,0.4c-0.5,3.4-1,5-1.5,8.4l2.3-0.4C60,33.7,60.1,33.1,60.3,31.8z"/>
		<path class="st0" d="M70.6,25.3l-2.3,0.3l-1,8.3l2.3-0.3C70.1,30.3,70.3,28.7,70.6,25.3z"/>
		<path class="st0" d="M76.2,33.2c1.4-0.2,2.7-0.7,3.8-1.6l0.3-3.7c-1.5,0.1-2.3,0.2-3.8,0.4l-0.2,1.7l1.7-0.2c0,0.4,0,0.6-0.1,1
			c-0.4,0.3-0.9,0.4-1.4,0.5c-0.9,0.2-1.9-0.4-2.1-1.4c0-0.2,0-0.5,0-0.7l0,0c0.1-1.3,1.1-2.3,2.3-2.5c0.7-0.1,1.4,0.1,1.9,0.6
			l1.5-1.8c-0.9-0.8-2.1-1.1-3.2-0.9c-2.5,0.3-4.6,2.3-4.9,4.8l0,0C71.8,31.9,73.6,33.4,76.2,33.2z"/>
		<path class="st0" d="M84.5,29.2c1.2-0.1,1.8-0.1,3-0.2c-0.1,1.3-0.1,1.9-0.2,3.1l2.3-0.1c0.2-3.3,0.2-5,0.4-8.3l-2.3,0.1
			c-0.1,1.2-0.1,1.9-0.2,3.1c-1.2,0.1-1.8,0.1-3,0.2c0.1-1.2,0.1-1.9,0.2-3.1l-2.3,0.2c-0.3,3.3-0.4,5-0.6,8.3l2.4-0.2
			C84.3,31.1,84.4,30.5,84.5,29.2z"/>
		<path class="st0" d="M98,29.9c-1,0-2-0.3-2.7-0.9c-0.5,0.6-0.8,0.9-1.3,1.6c1.1,0.9,2.6,1.3,4,1.3c2.1,0,3.4-1,3.5-2.7l0,0
			c0-1.5-1.2-2.1-3.1-2.5c-1.2-0.2-1.4-0.4-1.4-0.8l0,0c0-0.3,0.3-0.5,0.8-0.5c0.8,0,1.6,0.3,2.3,0.8c0.5-0.7,0.7-1,1.2-1.6
			c-1-0.8-2.2-1.1-3.4-1c-2,0-3.2,1.2-3.3,2.7l0,0c-0.1,1.7,1.3,2.1,3.1,2.5c1.1,0.2,1.4,0.4,1.4,0.8l0,0C99,29.7,98.6,29.9,98,29.9
			z"/>
		<path class="st0" d="M107.2,31.8c1.5,0.1,2.9-0.6,3.7-1.8l-1.8-1.3c-0.4,0.6-1.1,1-1.9,1c-1.2-0.1-2.1-1-2-2.2c0,0,0,0,0,0l0,0
			c-0.1-1.1,0.7-2.1,1.8-2.2c0.1,0,0.1,0,0.2,0c0.7,0,1.4,0.4,1.8,1l1.7-1.3c-1.4-1.9-4.2-2.4-6.1-0.9c-1.1,0.8-1.7,2.1-1.8,3.4l0,0
			c0,2.4,1.9,4.3,4.2,4.3C107.1,31.8,107.2,31.8,107.2,31.8z"/>
		<path class="st0" d="M115,31.8c0-1.3-0.1-1.9-0.1-3.1l3,0.1L118,32l2.4,0.1c-0.2-3.3-0.3-5-0.5-8.3l-2.3-0.1l0.2,3.1
			c-1.2-0.1-1.8-0.1-3-0.1c0-1.2-0.1-1.9-0.1-3.1l-2.3-0.1c0.1,3.3,0.1,5,0.2,8.3L115,31.8z"/>
		<path class="st0" d="M126.9,32.7c2.6,0.2,4.4-1.5,4.2-3.9l0,0c-0.3-2.5-2.3-4.5-4.8-4.7c-2-0.3-3.9,1.1-4.2,3.1c0,0.3,0,0.6,0,0.9
			l0,0C122.3,30.6,124.4,32.5,126.9,32.7z M126.4,26.2c1.3,0.1,2.2,1.2,2.3,2.4l0,0c0.2,0.9-0.5,1.8-1.4,2c-0.2,0-0.4,0-0.6,0
			c-1.3-0.1-2.2-1.2-2.3-2.4l0,0c-0.1-1,0.5-1.9,1.5-2C126,26.1,126.2,26.1,126.4,26.2z"/>
		<path class="st0" d="M137.6,33.7c2.6,0.3,4.3-1.3,4-3.7l0,0c-0.4-2.6-2.4-4.5-5-4.9c-1.8-0.4-3.6,0.8-4,2.7
			c-0.1,0.4-0.1,0.8,0,1.2l0,0C133,31.5,135,33.5,137.6,33.7z M136.9,27.2c1.3,0.2,2.2,1.2,2.4,2.5l0,0c0.2,0.9-0.3,1.8-1.2,2
			c-0.2,0.1-0.5,0.1-0.7,0c-1.3-0.2-2.2-1.2-2.4-2.5l0,0c-0.2-0.9,0.3-1.8,1.2-2C136.4,27.1,136.7,27.1,136.9,27.2z"/>
		<path class="st0" d="M150.5,35.4c-0.1-0.8-0.2-1.2-0.3-2l-4.1-0.7c-0.4-2.5-0.5-3.8-0.9-6.3L143,26c0.4,3.3,0.6,5,1.1,8.3
			C146.6,34.7,147.9,34.9,150.5,35.4z"/>
		<path class="st0" d="M133.4,52.5L133.4,52.5l0.3-0.4h-4.4v10.6c0,1.9-1.2,3.3-3.6,3.3s-3.4-1.4-3.4-4.2V52h-4.4l1.4,1.7v8.2
			c0,1.7,0,3.2,1.3,4.6c1.2,1.2,2.8,1.8,4.5,1.7c1.6,0,3.1-0.5,4.3-1.4v1.1h4.4l-1.4-1.7V53.7L133.4,52.5z"/>
		<path class="st0" d="M135.4,71H128l1.8,2.1v13.3l-1.8,2.1h7.2c6,0,10.2-3.7,10.2-8.9S141.6,71,135.4,71z M134.7,86H133V73.4h2.1
			c4.4,0,6.7,2.2,6.7,6.4C141.8,84.4,138.1,86,134.7,86z"/>
		<polygon class="st0" points="108.3,85.9 99.4,85.9 99.4,80.3 103.9,80.3 103.9,77.7 99.4,77.7 99.4,73.6 105.7,73.6 106.9,75 
			106.9,73.6 106.9,73.6 106.9,71 94.3,71 96.1,73.1 96.1,86.3 94.3,88.5 106.1,88.5 		"/>
		<path class="st0" d="M99.4,67.9h4.6l-1.9-1.7L96,52h-4.8l1.2,1.4l-6,14.5H89l2.4-5.9h5.5L99.4,67.9z M92.3,59.9l1.9-4.7l1.9,4.7
			H92.3z"/>
		<polygon class="st0" points="85.8,65.5 78,65.5 78,60.4 82,60.4 82,58.1 78,58.1 78,54.4 83.7,54.4 84.8,55.7 84.8,52.5 84.8,52 
			73.3,52 73.7,52.5 75,54 75,65.9 73.3,67.9 84.8,67.9 		"/>
		<path class="st0" d="M86.2,89.1c2.1-0.1,4.2-0.3,6.3-0.8l0.3-0.1v-9h-5.2l1.8,2.2v4.7c-1.1,0.3-2.3,0.4-3.5,0.4
			c-4,0.1-7.3-3-7.5-7c0-0.1,0-0.1,0-0.2c0-3.9,3-6.6,7.2-6.6c1,0,3.9,0.1,5.1,1.5l0.1,0.1v-3.6l-0.2-0.1c-1.4-0.3-2.9-0.4-4.3-0.4
			c-6.9,0-11.5,3.8-11.5,9.5S79.3,89.1,86.2,89.1z"/>
		<path class="st0" d="M117.8,67.5v-8h-4.6l1.6,1.9v4.2c-1,0.3-2,0.4-3.1,0.4c-3.5,0.1-6.5-2.7-6.6-6.2c0,0,0-0.1,0-0.1
			c0-3.5,2.6-5.9,6.4-5.9c3.4,0,4.7,1.4,4.7,1.4v-3.2c-1.3-0.3-2.7-0.4-4.1-0.5c-6.1,0-10.3,3.4-10.3,8.4s4,8.2,10.1,8.2
			C113.9,68.2,115.9,68,117.8,67.5z"/>
		<polygon class="st0" points="62.9,66.1 61.5,67.9 63.5,67.9 63.8,67.9 71.6,67.9 73.6,65.5 66,65.5 66,52.5 66,50.8 66,50.4 
			61.5,50.4 62.9,52.2 62.9,52.5 		"/>
		<polygon class="st0" points="51.8,69.6 51.8,67.2 46,67.2 48,69.6 48,90 46,92.3 54.6,92.3 57.9,92.3 58.6,91.6 58.6,91.6 
			60.8,88.8 51.8,88.8 		"/>
		<polygon class="st0" points="134.8,67.9 145.6,67.9 147.5,65.5 139.5,65.5 139.5,60.4 143.5,60.4 143.5,58.1 139.5,58.1 
			139.5,54.4 145.2,54.4 146.3,55.7 146.3,52.5 146.3,52 134.8,52 136.5,54 136.5,65.9 		"/>
		<path class="st0" d="M149.5,61.1c0-0.9-0.8-1.7-1.7-1.7c0,0,0,0,0,0l0,0c-1,0-1.8,0.7-1.8,1.7c0,0,0,0,0,0c0,1,0.8,1.7,1.7,1.7
			c0,0,0.1,0,0.1,0C148.7,62.8,149.5,62.1,149.5,61.1z M146.7,61.1c0-0.6,0.4-1,1-1c0.6,0,1,0.5,1,1.1c0,0,0,0,0,0c0,0.6-0.4,1-1,1
			C147.1,62.2,146.7,61.7,146.7,61.1C146.7,61.1,146.7,61.1,146.7,61.1L146.7,61.1z"/>
		<polygon class="st0" points="151.5,60.1 152.2,60.4 151.8,59.5 149.6,59.5 150,60 150,62.2 149.6,62.8 150.8,62.8 150.8,61.3 
			152,61.3 151.8,60.8 150.8,60.8 150.8,60.1 		"/>
		<path class="st0" d="M74.6,85.9h-8v-5.6H71v-2.6h-4.5v-4.1h6.2L74,75v-4H61.4l1.8,2.2v13.1l-1.8,2.2h15.9
			C76.2,87.8,75.3,86.9,74.6,85.9z"/>
		<path class="st0" d="M145.8,73.5c0,4.3,4,5.9,7.4,7.4c2.9,1.2,5.6,2.3,5.6,4.7s-3,3.4-5.1,3.4c-3,0-5.8-1.1-8.1-2.9l-0.7-0.6
			l1.4,5.5h0.1c1,0.3,2,0.6,3.1,0.8l0.6,0.1c0.3,0,0.7,0.1,1,0.1h0.5c0.5,0,1.1,0.1,1.6,0.1c4.6,0,7.6-2.1,9-4.7l0,0
			c0.5-0.9,0.7-1.8,0.8-2.8l0,0c0-0.1,0-0.1,0-0.2c0-3.8-3.9-5.4-7.4-7c-2.9-1.3-5.6-2.4-5.6-4.5s2.5-2.9,4.6-2.9
			c2.1,0,4.2,0.8,5.7,2.2l0.5,0.5v-5l-0.2-0.1c-1.9-0.5-3.8-0.8-5.7-0.8C149.2,67,145.8,69.4,145.8,73.5z"/>
		<polygon class="st0" points="122.6,71 122.6,80.5 113.1,71 113.1,71 108.7,71 110.1,72.6 110.1,86.3 108.3,88.5 108.3,88.5 
			108.3,88.5 113.4,88.5 113.4,75.8 125.9,88.5 125.9,72.7 127.7,70.9 		"/>
		<path class="st0" d="M152.6,45.2l-0.3-0.6c-47.8-13.3-96.6-0.1-97.1,0l-0.3,0.6C55.4,45.1,105.2,35.8,152.6,45.2z"/>
		<path class="st0" d="M89.5,129.4c-0.1,0-0.1,0-0.2,0c-2.6,0-4.7,2.1-4.7,4.6c0,0.1,0,0.1,0,0.2v0c-0.1,2.6,1.9,4.8,4.5,4.9
			c0.1,0,0.1,0,0.2,0c0.7,0,1.4-0.2,2-0.5l-2.5-2.1l2.2-2.4l2.5,2.3c0.3-0.7,0.4-1.4,0.4-2.1C94.2,131.7,92.1,129.5,89.5,129.4z"/>
		<g>
			<path class="st0" d="M127.3,134.9c0-0.2,0-0.3,0-0.5c0.1-2.5-1.8-4.5-4.2-4.7c-0.2,0-0.3,0-0.5,0l-2.6-0.1v9.4h2.6
				C125.1,139.1,127.2,137.3,127.3,134.9z"/>
			<path class="st0" d="M198,119.4l-0.6-0.1c-2.1-0.5-4.3-0.9-6.5-1.3L161,12.3L104.9,0.1L104.3,0H103L46.3,12.3L16.3,118
				c-2.2,0.4-4.3,0.9-6.5,1.3L0,121.5l57,42l2-0.5c1.9-0.5,3.9-0.9,6-1.3l38.7,29l38.7-29c2.1,0.4,4,0.8,6,1.3l1.9,0.4l57-42
				L198,119.4z M103.6,185.3l-33.1-24.8c1.2-0.2,6.3-0.8,13.8-1.3l19.3,12.5l19.4-12.6c4.5,0.3,9.1,0.8,13.7,1.4L103.6,185.3z
				 M97.9,140.2l-2.2,2.3L94,141c-1.4,0.9-3,1.3-4.6,1.3c-4.4,0.1-8.1-3.4-8.2-7.8c0-0.1,0-0.1,0-0.2c0-4.4,3.6-8,8-8
				c0.1,0,0.2,0,0.3,0c4.4-0.1,8.1,3.4,8.2,7.8c0,0.1,0,0.1,0,0.2v0c0,1.6-0.5,3.1-1.4,4.5L97.9,140.2z M112.9,138.9v3.1h-11.1
				v-15.5h3.4v12.4H112.9z M120,159l-16.3,10.6l-16.2-10.5C98.3,158.4,109.2,158.4,120,159z M116.6,142v-15.5h6
				c4.9,0,8.2,3.3,8.2,7.7v0.1c0,4.4-3.4,7.8-8.2,7.8H116.6z M32.4,115.7l21.5-95l49.7-11.2l49.7,11.2l21.5,94.9
				C115.3,107.5,56.7,112.7,32.4,115.7z M186.2,117.3c-3.1-0.5-6.2-1-9.3-1.4L155,19.1L103.9,7.6h-0.1L52.3,19.1l-21.9,96.8
				c-5.2,0.6-8.4,1.1-9.4,1.3L49.7,16l53.8-11.7h0.3h0.2L157.6,16L186.2,117.3L186.2,117.3z"/>
		</g>
	</g>
</g>
</svg>
