<svg xmlns="http://www.w3.org/2000/svg" xmlns:xlink="http://www.w3.org/1999/xlink" viewBox="0 0 214.36 195.87"><defs><style>.cls-1{fill:#fff;}.cls-2{fill:#bbbdbf;}.cls-3{fill:#f6fbfd;}.cls-4{fill:#808184;}.cls-5{fill:#e28a97;}.cls-6{fill:#a6a8ab;}.cls-7{fill:#404041;}.cls-8{fill:#e21937;}.cls-10,.cls-11,.cls-12,.cls-13,.cls-14,.cls-9{opacity:0.3;}.cls-9{fill:url(#linear-gradient);}.cls-10{fill:url(#linear-gradient-2);}.cls-11{fill:url(#linear-gradient-3);}.cls-12{fill:url(#linear-gradient-4);}.cls-13{fill:url(#linear-gradient-5);}.cls-14{fill:url(#linear-gradient-6);}.cls-15{fill:url(#linear-gradient-7);}.cls-16{fill:#4d4d4f;}</style><linearGradient id="linear-gradient" x1="171.66" y1="42.77" x2="164.1" y2="15.52" gradientUnits="userSpaceOnUse"><stop offset="0" stop-color="#fff"/><stop offset="1"/></linearGradient><linearGradient id="linear-gradient-2" x1="209.82" y1="42.77" x2="202.26" y2="15.52" gradientTransform="matrix(-1, 0, 0, 1, 252.39, 0)" xlink:href="#linear-gradient"/><linearGradient id="linear-gradient-3" x1="126.68" y1="7.03" x2="107.89" y2="2.98" xlink:href="#linear-gradient"/><linearGradient id="linear-gradient-4" x1="119.56" y1="183.83" x2="111.53" y2="188.42" xlink:href="#linear-gradient"/><linearGradient id="linear-gradient-5" x1="171.29" y1="151.45" x2="156.78" y2="164.05" xlink:href="#linear-gradient"/><linearGradient id="linear-gradient-6" x1="-468.18" y1="151.46" x2="-482.69" y2="164.05" gradientTransform="matrix(-1, 0, 0, 1, -425.18, 0)" xlink:href="#linear-gradient"/><linearGradient id="linear-gradient-7" x1="59.71" y1="162.39" x2="154.58" y2="162.39" gradientUnits="userSpaceOnUse"><stop offset="0" stop-color="#fff"/><stop offset="0.49" stop-color="#757575"/><stop offset="1" stop-color="#fff"/></linearGradient></defs><title>Asset 12</title><g id="Layer_2" data-name="Layer 2"><g id="Layer_1-2" data-name="Layer 1"><path class="cls-1" d="M203.38,122.37l-.6-.13c-2.18-.47-4.39-.92-6.61-1.36L165.65,13.23,108.39.81l-.6-.13h-1.24L48.71,13.23,18.19,120.88c-2.23.44-4.44.89-6.6,1.36l-.61.13-9.37,2.12,58.07,42.74,2-.45c2-.46,4-.89,6.08-1.29L107.18,195l39.44-29.53c2.1.4,4.14.83,6.09,1.29l2,.45,58.08-42.74Z"/><path class="cls-2" d="M107.79.68l.6.13,57.26,12.42,30.52,107.65c2.22.44,4.43.89,6.61,1.36l.6.13,9.37,2.12-58.08,42.74-2-.45c-2-.46-4-.89-6.09-1.29L107.18,195,67.73,165.49c-2.09.4-4.13.83-6.08,1.29l-2,.45L1.61,124.49,11,122.37l.61-.13c2.16-.47,4.37-.92,6.6-1.36L48.71,13.23,106.55.68h1.24m.07-.68h-1.38l-.07,0L48.57,12.56l-.4.09-.12.39L17.64,120.29c-2.05.41-4.13.84-6.19,1.28l-.62.13-9.37,2.13L0,124.16l1.2.88,58.08,42.74.25.19.31-.08,2-.45c1.86-.43,3.8-.84,5.77-1.22l39.2,29.34.41.31.41-.31,39.2-29.34c2,.38,3.91.79,5.76,1.22l2,.45.31.08.25-.19L213.16,125l1.2-.89-1.46-.33-9.37-2.12h0l-.62-.13c-2.06-.44-4.14-.87-6.2-1.28L166.3,13l-.11-.39-.4-.09L108.54.14,107.93,0Z"/><polygon points="28.28 124.25 107.18 181.42 186.08 124.25 161.35 18.04 107.18 5.87 53 18.04 28.28 124.25"/><path d="M107.18,189.53,21.47,125.38,52.21,17,107,5.07h.31l.15,0L162.14,17l30.74,108.42Zm-77.8-65.32,77.8,57,77.79-57L160.59,18.31,107.18,6.18,53.76,18.31Z"/><path class="cls-3" d="M107.33,5.07l.15,0L162.14,17l30.74,108.42-85.7,64.15L21.47,125.38,52.21,17,107,5.07h.31m-.15,176.15,77.79-57L160.59,18.31,107.18,6.18,53.76,18.31,29.38,124.21l77.8,57m.35-178.1h-.72l-.2,0L51.8,15.06l-1.14.24-.32,1.13L19.59,124.85l-.36,1.29,1.07.8L106,191.09l1.17.88,1.17-.88,85.7-64.15,1.08-.8-.37-1.29L164,16.43l-.32-1.13-1.14-.24L107.9,3.2l-.17,0-.2,0ZM55.39,19.94,107.18,8.18,159,19.94,182.78,123.4l-75.6,55.4L31.57,123.4,55.39,19.94Z"/><path class="cls-4" d="M107.18,189.53,21.47,125.38,52.21,17,107,5.07h.31l.15,0L162.14,17l30.74,108.42Z"/><polygon class="cls-5" points="185.53 122.74 170.34 57.03 188.31 122.04 185.53 122.74"/><polygon class="cls-5" points="26.04 122.04 44.02 57.03 28.83 122.74 26.04 122.04"/><polygon class="cls-5" points="107.18 184.09 75.66 161.04 77.36 158.72 107.18 180.53 136.99 158.72 138.69 161.04 107.18 184.09"/><polyline class="cls-6" points="158.65 20.98 107.19 9.38 107.17 9.38 55.71 20.98 32.92 122.68 41.53 127.83"/><path class="cls-3" d="M107.18,175.78l-.56-.39L31.83,123.1,54.89,20.16,107.28,8.4l.12,0,52.06,11.73L182.53,123.1ZM34,122.25l73.16,51.16,73.16-51.16L157.83,21.79,107.18,10.37,56.53,21.79Z"/><path class="cls-7" d="M54,103.51v0a3.15,3.15,0,0,1,3.24-3.21,3.2,3.2,0,0,1,2.45,1l-.87,1a2.28,2.28,0,0,0-1.59-.7,1.84,1.84,0,0,0-1.8,1.93v0a1.84,1.84,0,0,0,1.8,2,2.28,2.28,0,0,0,1.64-.73l.87.88a3.19,3.19,0,0,1-2.55,1.11A3.14,3.14,0,0,1,54,103.51Z"/><path class="cls-7" d="M63.94,100.38h1.37v2.46h2.52v-2.46H69.2v6.22H67.83v-2.5H65.31v2.5H63.94Z"/><path class="cls-7" d="M75.93,100.34H77.2l2.66,6.26H78.43l-.57-1.39H75.23l-.57,1.39H73.27ZM77.37,104l-.82-2-.83,2Z"/><path class="cls-7" d="M83.93,100.38H85.4L87,103l1.64-2.63h1.47v6.22H88.79v-4.06L87,105.2h0l-1.73-2.63v4H83.93Z"/><path class="cls-7" d="M94.75,100.38h2.54a2.13,2.13,0,0,1,2.38,2.15v0a2.22,2.22,0,0,1-2.51,2.18h-1v1.87H94.75Zm2.46,3.14a1,1,0,0,0,1.08-.94v0c0-.61-.43-1-1.11-1H96.12v1.91Z"/><path class="cls-7" d="M103.86,100.38h1.37v6.22h-1.37Z"/><path class="cls-7" d="M109.62,103.51v0a3.31,3.31,0,0,1,6.61,0v0a3.22,3.22,0,0,1-3.32,3.22A3.18,3.18,0,0,1,109.62,103.51Zm5.18,0v0a1.88,1.88,0,0,0-1.89-1.95,1.85,1.85,0,0,0-1.86,1.93v0a1.89,1.89,0,0,0,1.88,2A1.87,1.87,0,0,0,114.8,103.51Z"/><path class="cls-7" d="M120.55,100.38h1.27l2.91,3.83v-3.83h1.35v6.22h-1.16l-3-3.95v3.95h-1.36Z"/><path class="cls-7" d="M130.26,105.69l.81-1a2.84,2.84,0,0,0,1.85.75c.56,0,.9-.22.9-.58v0c0-.35-.21-.53-1.25-.79-1.26-.32-2.06-.67-2.06-1.9v0a1.94,1.94,0,0,1,2.17-1.88,3.63,3.63,0,0,1,2.31.79l-.71,1a2.92,2.92,0,0,0-1.61-.61c-.53,0-.8.24-.8.54v0c0,.41.26.54,1.34.82,1.26.33,2,.78,2,1.86v0c0,1.24-.94,1.93-2.28,1.93A3.92,3.92,0,0,1,130.26,105.69Z"/><path class="cls-7" d="M139.48,100.38h1.37v2.46h2.52v-2.46h1.37v6.22h-1.37v-2.5h-2.52v2.5h-1.37Z"/><path class="cls-7" d="M149.41,100.38h1.36v6.22h-1.36Z"/><path class="cls-7" d="M155.44,100.38H158a2.13,2.13,0,0,1,2.38,2.15v0a2.22,2.22,0,0,1-2.51,2.18h-1v1.87h-1.37Zm2.45,3.14a1,1,0,0,0,1.08-.94v0c0-.61-.42-1-1.11-1h-1.05v1.91Z"/><path class="cls-8" d="M61.64,28.2c.93-.16,1.15-.24,2.07-.39-.18,1.28-.27,1.91-.46,3.19,1.2-.2,1.81-.29,3-.47.17-1.27.25-1.91.42-3.18L69,27c-.43,3.4-.64,5.1-1.06,8.49-1,.13-1.44.2-2.39.35.17-1.3.26-1.94.43-3.23-1.21.18-1.82.27-3,.47-.18,1.29-.28,1.94-.46,3.23l-2.38.4C60.62,33.31,61.13,31.61,61.64,28.2Z"/><path class="cls-8" d="M71.23,26.8l2.32-.3L72.6,35l-2.39.31C70.61,31.89,70.82,30.19,71.23,26.8Z"/><path class="cls-8" d="M75,30.6v0a5.68,5.68,0,0,1,5-4.9,4.07,4.07,0,0,1,3.3.89L81.8,28.36a2.51,2.51,0,0,0-2-.6,2.85,2.85,0,0,0-2.39,2.54v0a1.78,1.78,0,0,0,2.1,2.1,2.78,2.78,0,0,0,1.41-.49c0-.41,0-.61.08-1l-1.67.17c.06-.69.1-1,.16-1.72,1.56-.16,2.34-.23,3.9-.37l-.3,3.79a7.09,7.09,0,0,1-3.86,1.67C76.55,34.73,74.75,33.17,75,30.6Z"/><path class="cls-8" d="M85.66,25.38,88,25.2c-.08,1.26-.12,1.89-.21,3.16,1.21-.1,1.82-.13,3-.21.07-1.26.1-1.89.17-3.15.94-.06,1.4-.09,2.34-.13-.16,3.36-.25,5-.41,8.41l-2.4.14c.07-1.28.11-1.92.18-3.2l-3,.21c-.08,1.28-.12,1.92-.21,3.2l-2.4.19C85.29,30.44,85.41,28.76,85.66,25.38Z"/><path class="cls-8" d="M97.26,31.84l1.38-1.59a4.38,4.38,0,0,0,2.76.93c.66,0,1-.23,1-.59v0c0-.37-.28-.55-1.44-.79-1.81-.38-3.21-.83-3.15-2.55v0c.05-1.56,1.32-2.74,3.34-2.78a5.09,5.09,0,0,1,3.45,1.06l-1.19,1.66a4.09,4.09,0,0,0-2.36-.79c-.57,0-.85.25-.86.56v0c0,.38.28.55,1.46.78,1.94.39,3.16,1,3.15,2.58v0c0,1.72-1.42,2.75-3.53,2.79A6,6,0,0,1,97.26,31.84Z"/><path class="cls-8" d="M106.37,28.74v0a4.46,4.46,0,0,1,8-2.54l-1.74,1.32a2.38,2.38,0,0,0-1.87-1,2,2,0,0,0-2,2.21v0A2.13,2.13,0,0,0,110.86,31a2.31,2.31,0,0,0,1.93-1l1.82,1.29a4.24,4.24,0,0,1-3.79,1.83A4.35,4.35,0,0,1,106.37,28.74Z"/><path class="cls-8" d="M116.13,24.63l2.34.09c0,1.26.07,1.88.12,3.14l3,.14-.15-3.15,2.33.13c.19,3.37.28,5.06.47,8.43l-2.4-.14-.15-3.2-3-.14c0,1.28.07,1.92.12,3.2-1,0-1.45-.06-2.41-.08C116.28,29.68,116.23,28,116.13,24.63Z"/><path class="cls-8" d="M125.94,29.3v0a3.74,3.74,0,0,1,4.27-4A5.44,5.44,0,0,1,135.12,30s0,0,0,0c.22,2.43-1.6,4.19-4.28,4A5.24,5.24,0,0,1,125.94,29.3Zm6.76.53v0a2.68,2.68,0,0,0-2.35-2.47,1.81,1.81,0,0,0-2,2.08v0a2.65,2.65,0,0,0,2.37,2.46A1.77,1.77,0,0,0,132.7,29.83Z"/><path class="cls-8" d="M136.75,30.16s0,0,0,0a3.45,3.45,0,0,1,4.11-3.88,6,6,0,0,1,5.05,5s0,0,0,0c.3,2.44-1.44,4.13-4.11,3.8A5.75,5.75,0,0,1,136.75,30.16Zm6.74.8v0a2.94,2.94,0,0,0-2.42-2.57,1.67,1.67,0,0,0-1.92,2v0A2.92,2.92,0,0,0,141.59,33,1.64,1.64,0,0,0,143.49,31Z"/><path class="cls-8" d="M147.25,27.19l2.31.35c.36,2.58.54,3.86.89,6.44,1.66.25,2.48.39,4.14.67.12.83.19,1.24.31,2.07-2.62-.45-3.93-.66-6.55-1Z"/><path class="cls-1" d="M22.62,119.8s85.37-13.74,168.69,0c5.65.93,3.31,3.18,3.31,3.18l-86.13-6.49-88.67,7.76"/><path class="cls-8" d="M201.85,126.53c-33-7.1-65.74-9.29-94.54-9.12h-.26c-28.8-.17-61.57,2-94.55,9.12l-.55.12L60.66,162.5a201.55,201.55,0,0,1,46.39-4.84h.26a201.6,201.6,0,0,1,46.39,4.84l48.71-35.85Z"/><path class="cls-1" d="M110.36,117.4c28.06,0,59.68,2.28,91.49,9.13l.56.12L153.7,162.5a200.68,200.68,0,0,0-45-4.84h-3.06a200.62,200.62,0,0,0-45,4.84L12,126.65l.55-.12c31.82-6.85,63.44-9.13,91.49-9.13h6.37m0-2H104c-32.68,0-63.6,3.08-91.9,9.17l-.59.13-4.12,1,3.41,2.51L59.5,164.07l.73.53.87-.2a197.84,197.84,0,0,1,44.55-4.79h3.06a197.84,197.84,0,0,1,44.55,4.79l.87.2.72-.53,48.72-35.85,3.41-2.51-4.13-1-.59-.13c-28.29-6.09-59.21-9.17-91.9-9.17Z"/><path class="cls-6" d="M58,46.41s49.47-9.76,98.52,0"/><path class="cls-4" d="M57.54,46.77l.3-.59c.5-.1,50.18-13.54,98.9,0l.3.59C108.73,37.16,58,46.67,57.54,46.77Z"/><polygon class="cls-9" points="162.14 16.96 165.69 13.28 174.26 43.64 170.21 45.41 162.14 16.96"/><polygon class="cls-10" points="52.08 16.96 48.53 13.28 39.97 43.64 44.02 45.41 52.08 16.96"/><polygon class="cls-11" points="107.16 0.67 107.76 0.67 132.06 5.95 130.54 10.13 107.34 5.07 107.16 5.07 107.16 0.67"/><polygon class="cls-12" points="107.18 189.53 107.18 195.08 125.27 181.42 122.56 177.95 107.18 189.53"/><polygon class="cls-13" points="154.58 167.35 153.7 162.5 173.57 147.88 176.43 151.22 154.58 167.35"/><polygon class="cls-14" points="59.71 167.35 60.6 162.5 40.73 147.88 37.87 151.22 59.71 167.35"/><path class="cls-15" d="M59.71,167.35s46.11-10.59,94.87,0l-.88-4.85s-42.72-11.4-93.1,0"/><path class="cls-16" d="M133.32,69.85h4.5l-1.43-1.7V55.41l1.06-1.26h0v0l.36-.42h-4.5V64.55c0,1.94-1.26,3.37-3.71,3.37s-3.51-1.41-3.51-4.3V53.7h-4.51L123,55.41v8.38c0,1.69,0,3.29,1.31,4.7a6.26,6.26,0,0,0,4.59,1.74,6.9,6.9,0,0,0,4.4-1.46Z"/><path class="cls-16" d="M132,90.84h7.36c6.13,0,10.4-3.74,10.4-9.09S145.83,73,139.49,73H132l1.78,2.14V88.69Zm5.14-15.35h2.12c4.46,0,6.81,2.27,6.81,6.57,0,4.62-3.75,6.27-7.27,6.27h-1.66Z"/><polygon class="cls-16" points="97.63 90.83 109.69 90.83 111.91 88.18 102.88 88.18 102.88 82.46 107.39 82.46 107.39 79.8 102.88 79.8 102.88 75.64 109.24 75.64 110.48 77.13 110.48 75.64 110.49 75.64 110.49 72.98 97.62 72.98 99.47 75.2 99.47 88.61 97.63 90.83"/><path class="cls-16" d="M102.82,69.85h4.7l-1.93-1.7L99.42,53.69H94.53l1.2,1.42L89.54,69.85H92.3l2.44-6h5.6Zm-7.24-8.11,1.94-4.8,2,4.8Z"/><polygon class="cls-16" points="76.3 69.85 87.94 69.85 88.99 67.45 81.05 67.45 81.05 62.27 85.15 62.27 85.15 59.87 81.05 59.87 81.05 56.09 86.81 56.09 87.94 57.44 87.94 54.14 87.94 53.69 76.29 53.69 76.67 54.15 76.67 54.15 77.97 55.7 77.97 67.84 76.3 69.85"/><path class="cls-16" d="M95.81,90.75l.34-.06V81.51H90.88l1.82,2.2v4.83a14.07,14.07,0,0,1-3.54.43,7.35,7.35,0,0,1-7.61-7.25c0-4,3-6.72,7.31-6.72,1,0,4,.14,5.23,1.5l.09.1V73l-.25,0a21.79,21.79,0,0,0-4.4-.46c-7,0-11.76,3.88-11.76,9.64s4.55,9.43,11.59,9.43A35.38,35.38,0,0,0,95.81,90.75Z"/><path class="cls-16" d="M115.11,55.54c3.51,0,4.74,1.42,4.74,1.42V53.73a19,19,0,0,0-4.15-.46c-6.24,0-10.44,3.45-10.44,8.58s4,8.37,10.29,8.37a24.49,24.49,0,0,0,6-.74V61.33h-4.68l1.62,2v4.29a12.47,12.47,0,0,1-3.15.39,6.55,6.55,0,0,1-6.77-6.45C108.61,58,111.29,55.54,115.11,55.54Z"/><polygon class="cls-16" points="65.69 54.16 65.69 68.05 64.19 69.86 66.31 69.86 66.61 69.85 74.51 69.85 76.51 67.39 68.83 67.39 68.83 54.16 68.83 52.47 68.83 52.04 64.19 52.04 65.69 53.84 65.69 54.16"/><polygon class="cls-16" points="61.25 93.97 61.25 93.97 63.53 91.22 54.33 91.22 54.33 71.63 54.33 69.18 48.43 69.18 50.44 71.6 50.44 92.37 48.43 94.79 57.23 94.79 60.57 94.79 61.25 93.97"/><polygon class="cls-16" points="140.65 55.7 140.65 67.84 138.97 69.85 149.9 69.85 151.91 67.45 143.73 67.45 143.73 62.27 147.82 62.27 147.82 59.87 143.73 59.87 143.73 56.09 149.48 56.09 150.61 57.44 150.61 54.16 150.61 53.69 138.97 53.69 140.65 55.7"/><path class="cls-16" d="M150.21,63a1.77,1.77,0,0,0,1.85,1.76,1.8,1.8,0,0,0,1.86-1.79,1.76,1.76,0,0,0-1.82-1.73h0A1.8,1.8,0,0,0,150.21,63Zm1.86-1.11a1.08,1.08,0,0,1,1,1.17,1,1,0,0,1-1,1.06,1.12,1.12,0,0,1-1-1.17A1,1,0,0,1,152.07,61.84Z"/><polygon class="cls-16" points="153.98 64.63 155.23 64.63 155.23 63.15 156.48 63.15 156.29 62.59 155.23 62.59 155.23 61.94 155.98 61.94 156.64 62.27 156.26 61.27 153.98 61.27 154.43 61.8 154.43 64.11 153.98 64.63"/><path class="cls-16" d="M64.1,90.84H80.31a10.21,10.21,0,0,1-2.78-2.66H69.36V82.46h4.52V79.8H69.36V75.64h6.33l1.24,1.49V73H64.1L66,75.2V88.61Z"/><path class="cls-16" d="M167.73,87h0c0-.06,0-.13,0-.19,0-3.82-4-5.56-7.58-7.09-2.94-1.26-5.71-2.46-5.71-4.56s2.52-3,4.67-3a8.8,8.8,0,0,1,5.85,2.2l.52.51V69.84l-.21-.06a20.72,20.72,0,0,0-5.85-.81c-5.79,0-9.26,2.48-9.26,6.64,0,4.35,4,6,7.6,7.55,2.93,1.24,5.69,2.4,5.69,4.82,0,2.26-3,3.46-5.21,3.46a13.5,13.5,0,0,1-8.27-3l-.72-.58,1.39,5.61.15.06a20.69,20.69,0,0,0,3.17.79l.6.09c.35,0,.7.09,1.05.12l.56,0c.54,0,1.09.06,1.64.06,4.69,0,7.8-2.13,9.15-4.76h0A6.66,6.66,0,0,0,167.73,87Z"/><polygon class="cls-16" points="117.12 90.88 117.12 77.88 129.85 90.85 129.85 74.8 131.68 72.98 126.47 72.98 126.47 82.75 116.84 73.02 116.8 72.98 112.31 72.98 113.74 74.7 113.74 88.61 111.89 90.83 111.97 90.83 111.93 90.88 117.12 90.88"/><path class="cls-16" d="M133.32,69.33h4.5l-1.43-1.71V54.88l1.06-1.26h0v0l.36-.43h-4.5V64c0,2-1.26,3.38-3.71,3.38S126.1,66,126.1,63.09V53.17h-4.51L123,54.88v8.39c0,1.69,0,3.28,1.31,4.69a6.23,6.23,0,0,0,4.59,1.75,6.91,6.91,0,0,0,4.4-1.47Z"/><path class="cls-16" d="M132,90.31h7.36c6.13,0,10.4-3.74,10.4-9.08s-3.93-8.77-10.27-8.77H132l1.78,2.14V88.16ZM137.14,75h2.12c4.46,0,6.81,2.26,6.81,6.57,0,4.62-3.75,6.26-7.27,6.26h-1.66Z"/><polygon class="cls-16" points="97.63 90.31 109.69 90.31 111.91 87.65 102.88 87.65 102.88 81.94 107.39 81.94 107.39 79.28 102.88 79.28 102.88 75.11 109.24 75.11 110.48 76.61 110.48 75.11 110.49 75.11 110.49 72.46 97.62 72.46 99.47 74.68 99.47 88.08 97.63 90.31"/><path class="cls-16" d="M102.82,69.33h4.7l-1.93-1.71L99.42,53.16H94.53l1.2,1.43L89.54,69.33H92.3l2.44-6h5.6Zm-7.24-8.11,1.94-4.8,2,4.8Z"/><polygon class="cls-16" points="76.3 69.33 87.94 69.33 88.99 66.92 81.05 66.92 81.05 61.74 85.15 61.74 85.15 59.34 81.05 59.34 81.05 55.57 86.81 55.57 87.94 56.92 87.94 53.61 87.94 53.16 76.29 53.16 76.67 53.62 76.67 53.62 77.97 55.17 77.97 67.31 76.3 69.33"/><path class="cls-16" d="M95.81,90.23l.34-.07V81H90.88l1.82,2.19V88a13.63,13.63,0,0,1-3.54.43,7.35,7.35,0,0,1-7.61-7.24c0-4,3-6.73,7.31-6.73,1,0,4,.14,5.23,1.5l.09.1V72.44l-.25,0a21.79,21.79,0,0,0-4.4-.46c-7,0-11.76,3.87-11.76,9.64S82.32,91,89.36,91A36.28,36.28,0,0,0,95.81,90.23Z"/><path class="cls-16" d="M115.11,55c3.51,0,4.74,1.42,4.74,1.42V53.2a19.42,19.42,0,0,0-4.15-.45c-6.24,0-10.44,3.44-10.44,8.57s4,8.37,10.29,8.37a24.81,24.81,0,0,0,6-.73V60.8h-4.68l1.62,2v4.3a12.94,12.94,0,0,1-3.15.38A6.55,6.55,0,0,1,108.61,61C108.61,57.47,111.29,55,115.11,55Z"/><polygon class="cls-16" points="65.69 53.63 65.69 67.53 64.19 69.33 66.31 69.33 66.61 69.32 74.51 69.32 76.51 66.87 68.83 66.87 68.83 53.63 68.83 51.94 68.83 51.52 64.19 51.52 65.69 53.32 65.69 53.63"/><polygon class="cls-16" points="61.25 93.45 61.25 93.45 63.53 90.7 54.33 90.7 54.33 71.11 54.33 68.66 48.43 68.66 50.44 71.07 50.44 91.85 48.43 94.27 57.23 94.27 60.57 94.27 61.25 93.45"/><polygon class="cls-16" points="140.65 55.17 140.65 67.31 138.97 69.33 149.9 69.33 151.91 66.92 143.73 66.92 143.73 61.74 147.82 61.74 147.82 59.34 143.73 59.34 143.73 55.57 149.48 55.57 150.61 56.92 150.61 53.64 150.61 53.16 138.97 53.16 140.65 55.17"/><path class="cls-16" d="M150.21,62.42a1.76,1.76,0,0,0,1.85,1.76,1.8,1.8,0,0,0,1.86-1.78,1.76,1.76,0,0,0-1.82-1.74h0A1.8,1.8,0,0,0,150.21,62.42Zm1.86-1.1a1.07,1.07,0,0,1,1,1.17,1,1,0,0,1-1,1,1.11,1.11,0,0,1-1-1.17A1,1,0,0,1,152.07,61.32Z"/><polygon class="cls-16" points="153.98 64.11 155.23 64.11 155.23 62.62 156.48 62.62 156.29 62.07 155.23 62.07 155.23 61.41 155.98 61.41 156.64 61.74 156.26 60.74 153.98 60.74 154.43 61.28 154.43 63.58 153.98 64.11"/><path class="cls-16" d="M64.1,90.31H80.31a10.05,10.05,0,0,1-2.78-2.66H69.36V81.93h4.52V79.28H69.36V75.11h6.33l1.24,1.5V72.46H64.1L66,74.68V88.09Z"/><path class="cls-16" d="M167.73,86.52h0c0-.07,0-.13,0-.2,0-3.82-4-5.55-7.58-7.08-2.94-1.27-5.71-2.46-5.71-4.56s2.52-3,4.67-3A8.84,8.84,0,0,1,165,73.88l.52.51V69.32l-.21-.06a20.73,20.73,0,0,0-5.85-.82c-5.79,0-9.26,2.49-9.26,6.64,0,4.36,4,6.06,7.6,7.56,2.93,1.23,5.69,2.4,5.69,4.81s-3,3.47-5.21,3.47A13.5,13.5,0,0,1,150,88l-.72-.58L150.65,93l.15,0a18.6,18.6,0,0,0,3.17.79c.19,0,.4.06.6.09q.52.07,1.05.12l.56,0c.54,0,1.09.06,1.64.06,4.69,0,7.8-2.14,9.15-4.77h0A6.66,6.66,0,0,0,167.73,86.52Z"/><polygon class="cls-16" points="117.12 90.35 117.12 77.35 129.85 90.32 129.85 74.28 131.68 72.46 126.47 72.46 126.47 82.23 116.84 72.5 116.8 72.46 112.31 72.46 113.74 74.18 113.74 88.08 111.89 90.31 111.97 90.31 111.93 90.35 117.12 90.35"/><path class="cls-1" d="M133.32,68.47h4.5l-1.43-1.71V54l1.06-1.26h0v0l.36-.43h-4.5V63.16c0,2-1.26,3.37-3.71,3.37s-3.51-1.4-3.51-4.3V52.31h-4.51L123,54v8.39c0,1.69,0,3.28,1.31,4.69a6.23,6.23,0,0,0,4.59,1.75,7,7,0,0,0,4.4-1.46Z"/><path class="cls-1" d="M132,89.45h7.36c6.13,0,10.4-3.74,10.4-9.08s-3.93-8.77-10.27-8.77H132l1.78,2.14V87.31Zm5.14-15.35h2.12c4.46,0,6.81,2.27,6.81,6.57,0,4.62-3.75,6.26-7.27,6.26h-1.66Z"/><polygon class="cls-1" points="97.63 89.45 109.69 89.45 111.91 86.79 102.88 86.79 102.88 81.08 107.39 81.08 107.39 78.42 102.88 78.42 102.88 74.25 109.24 74.25 110.48 75.75 110.48 74.25 110.49 74.25 110.49 71.6 97.62 71.6 99.47 73.82 99.47 87.23 97.63 89.45"/><path class="cls-1" d="M102.82,68.47h4.7l-1.93-1.71L99.42,52.3H94.53l1.2,1.43L89.54,68.47H92.3l2.44-6h5.6Zm-7.24-8.11,1.94-4.8,2,4.8Z"/><polygon class="cls-1" points="76.3 68.47 87.94 68.47 88.99 66.07 81.05 66.07 81.05 60.88 85.15 60.88 85.15 58.48 81.05 58.48 81.05 54.71 86.81 54.71 87.94 56.06 87.94 52.75 87.94 52.3 76.29 52.3 76.67 52.76 76.67 52.76 77.97 54.32 77.97 66.45 76.3 68.47"/><path class="cls-1" d="M95.81,89.37l.34-.07V80.13H90.88l1.82,2.19v4.83a13.63,13.63,0,0,1-3.54.43,7.34,7.34,0,0,1-7.61-7.24c0-4,3-6.73,7.31-6.73,1,0,4,.14,5.23,1.51l.09.09V71.58l-.25,0a21.79,21.79,0,0,0-4.4-.46c-7,0-11.76,3.87-11.76,9.64s4.55,9.43,11.59,9.43A36.28,36.28,0,0,0,95.81,89.37Z"/><path class="cls-1" d="M115.11,54.15c3.51,0,4.74,1.43,4.74,1.43V52.35a19,19,0,0,0-4.15-.46c-6.24,0-10.44,3.44-10.44,8.57s4,8.38,10.29,8.38a24.49,24.49,0,0,0,6-.74V60h-4.68l1.62,1.94v4.3a12.94,12.94,0,0,1-3.15.38,6.55,6.55,0,0,1-6.77-6.44C108.61,56.61,111.29,54.15,115.11,54.15Z"/><polygon class="cls-1" points="65.69 52.77 65.69 66.67 64.19 68.47 66.31 68.47 66.61 68.46 74.51 68.46 76.51 66.01 68.83 66.01 68.83 52.77 68.83 51.08 68.83 50.66 64.19 50.66 65.69 52.46 65.69 52.77"/><polygon class="cls-1" points="61.25 92.59 61.25 92.59 63.53 89.84 54.33 89.84 54.33 70.25 54.33 67.8 48.43 67.8 50.44 70.21 50.44 90.99 48.43 93.41 57.23 93.41 60.57 93.41 61.25 92.59"/><polygon class="cls-1" points="140.65 54.32 140.65 66.45 138.97 68.47 149.9 68.47 151.91 66.07 143.73 66.07 143.73 60.88 147.82 60.88 147.82 58.48 143.73 58.48 143.73 54.71 149.48 54.71 150.61 56.06 150.61 52.78 150.61 52.3 138.97 52.3 140.65 54.32"/><path class="cls-1" d="M150.21,61.56a1.76,1.76,0,0,0,1.85,1.76,1.8,1.8,0,0,0,1.86-1.78,1.75,1.75,0,0,0-1.82-1.73h0A1.79,1.79,0,0,0,150.21,61.56Zm1.86-1.1a1.08,1.08,0,0,1,1,1.17,1,1,0,0,1-1,1,1.11,1.11,0,0,1-1-1.17A1,1,0,0,1,152.07,60.46Z"/><polygon class="cls-1" points="153.98 63.25 155.23 63.25 155.23 61.76 156.48 61.76 156.29 61.21 155.23 61.21 155.23 60.55 155.98 60.55 156.64 60.88 156.26 59.88 153.98 59.88 154.43 60.42 154.43 62.72 153.98 63.25"/><path class="cls-1" d="M64.1,89.45H80.31a10.05,10.05,0,0,1-2.78-2.66H69.36V81.08h4.52V78.42H69.36V74.25h6.33l1.24,1.5V71.6H64.1L66,73.82V87.23Z"/><path class="cls-1" d="M167.73,85.66h0c0-.07,0-.13,0-.2,0-3.82-4-5.55-7.58-7.08-2.94-1.27-5.71-2.46-5.71-4.56s2.52-3,4.67-3A8.84,8.84,0,0,1,165,73l.52.52V68.46l-.21-.06a20.73,20.73,0,0,0-5.85-.82c-5.79,0-9.26,2.49-9.26,6.65,0,4.35,4,6,7.6,7.55,2.93,1.24,5.69,2.4,5.69,4.81s-3,3.47-5.21,3.47a13.5,13.5,0,0,1-8.27-3l-.72-.58,1.39,5.61.15,0A19.6,19.6,0,0,0,154,93l.6.08q.52.08,1.05.12l.56,0c.54,0,1.09.06,1.64.06,4.69,0,7.8-2.14,9.15-4.77h0A6.74,6.74,0,0,0,167.73,85.66Z"/><polygon class="cls-1" points="117.12 89.49 117.12 76.5 129.85 89.47 129.85 73.42 131.68 71.6 126.47 71.6 126.47 81.37 116.84 71.64 116.8 71.6 112.31 71.6 113.74 73.32 113.74 87.23 111.89 89.45 111.97 89.45 111.93 89.49 117.12 89.49"/><path class="cls-1" d="M88.92,142.66l2-2.42a7.15,7.15,0,0,0,4.64,1.89c1.4,0,2.25-.56,2.25-1.47v0c0-.86-.53-1.31-3.14-2-3.13-.81-5.16-1.67-5.16-4.76v0c0-2.82,2.27-4.69,5.45-4.69a9,9,0,0,1,5.78,2L99,133.7a7.3,7.3,0,0,0-4-1.54c-1.31,0-2,.6-2,1.36v0c0,1,.66,1.35,3.35,2,3.16.82,4.94,2,4.94,4.67v0c0,3.1-2.36,4.83-5.71,4.83A9.91,9.91,0,0,1,88.92,142.66Z"/><path class="cls-1" d="M110.34,129.25h3.15l6.68,15.68h-3.58l-1.43-3.49h-6.58l-1.42,3.49h-3.49Zm3.6,9.16-2.07-5-2.07,5Z"/></g></g></svg>